<?xml version="1.0" encoding="utf-8"?>
<!-- Generator: Adobe Illustrator 17.1.0, SVG Export Plug-In . SVG Version: 6.00 Build 0)  -->
<!DOCTYPE svg PUBLIC "-//W3C//DTD SVG 1.1//EN" "http://www.w3.org/Graphics/SVG/1.1/DTD/svg11.dtd">
<svg version="1.1" id="Layer_1" xmlns="http://www.w3.org/2000/svg" xmlns:xlink="http://www.w3.org/1999/xlink" x="0px" y="0px"
	 viewBox="0 0 2151.975 230.76" enable-background="new 0 0 2151.975 230.76" xml:space="preserve">
<g>
	<path fill="#186536" d="M22.34,21.824l-1.56-1.69v-8.19l1.69-1.69h8.19l1.69,1.69v8.19l-1.69,1.69H22.34z M22.34,34.824l-1.56-1.69
		v-8.19l1.69-1.69h8.19l1.69,1.69v8.19l-1.69,1.69H22.34z M22.34,47.824l-1.56-1.69v-8.19l1.69-1.69h8.19l1.69,1.69v8.19l-1.69,1.69
		H22.34z M22.34,60.824l-1.56-1.69v-8.19l1.69-1.69h8.19l1.69,1.69v8.19l-1.69,1.69H22.34z M22.34,73.824l-1.56-1.69v-8.19
		l1.69-1.69h8.19l1.69,1.69v8.19l-1.69,1.69H22.34z M22.34,86.824l-1.56-1.69v-8.19l1.69-1.69h8.19l1.69,1.69v8.19l-1.69,1.69H22.34
		z M22.34,99.824l-1.56-1.69v-8.19l1.69-1.69h8.19l1.69,1.69v8.19l-1.69,1.69H22.34z M22.34,112.824l-1.56-1.69v-8.19l1.69-1.69
		h8.19l1.69,1.69v8.19l-1.69,1.69H22.34z M35.34,21.824l-1.56-1.69v-8.19l1.69-1.69h8.19l1.69,1.69v8.19l-1.69,1.69H35.34z
		 M35.34,34.824l-1.56-1.69v-8.19l1.69-1.69h8.19l1.69,1.69v8.19l-1.69,1.69H35.34z M35.34,47.824l-1.56-1.69v-8.19l1.69-1.69h8.19
		l1.69,1.69v8.19l-1.69,1.69H35.34z M35.34,60.824l-1.56-1.69v-8.19l1.69-1.69h8.19l1.69,1.69v8.19l-1.69,1.69H35.34z M35.34,73.824
		l-1.56-1.69v-8.19l1.69-1.69h8.19l1.69,1.69v8.19l-1.69,1.69H35.34z M35.34,86.824l-1.56-1.69v-8.19l1.69-1.69h8.19l1.69,1.69v8.19
		l-1.69,1.69H35.34z M35.34,99.824l-1.56-1.69v-8.19l1.69-1.69h8.19l1.69,1.69v8.19l-1.69,1.69H35.34z M35.34,112.824l-1.56-1.69
		v-8.19l1.69-1.69h8.19l1.69,1.69v8.19l-1.69,1.69H35.34z M48.34,21.824l-1.56-1.69v-8.19l1.69-1.69h8.19l1.69,1.69v8.19l-1.69,1.69
		H48.34z M48.34,73.824l-1.56-1.69v-8.19l1.69-1.69h8.19l1.69,1.69v8.19l-1.69,1.69H48.34z M61.34,21.824l-1.56-1.69v-8.19
		l1.69-1.69h8.19l1.69,1.69v8.19l-1.69,1.69H61.34z M61.34,73.824l-1.56-1.69v-8.19l1.69-1.69h8.19l1.69,1.69v8.19l-1.69,1.69H61.34
		z M74.34,21.824l-1.56-1.69v-8.19l1.69-1.69h8.19l1.69,1.69v8.19l-1.69,1.69H74.34z M74.34,34.824l-1.56-1.69v-8.19l1.69-1.69h8.19
		l1.69,1.69v8.19l-1.69,1.69H74.34z M74.34,47.824l-1.56-1.69v-8.19l1.69-1.69h8.19l1.69,1.69v8.19l-1.69,1.69H74.34z M74.34,60.824
		l-1.56-1.69v-8.19l1.69-1.69h8.19l1.69,1.69v8.19l-1.69,1.69H74.34z M74.34,73.824l-1.56-1.69v-8.19l1.69-1.69h8.19l1.69,1.69v8.19
		l-1.69,1.69H74.34z M74.34,86.824l-1.56-1.69v-8.19l1.69-1.69h8.19l1.69,1.69v8.19l-1.69,1.69H74.34z M74.34,99.824l-1.56-1.69
		v-8.19l1.69-1.69h8.19l1.69,1.69v8.19l-1.69,1.69H74.34z M74.34,112.824l-1.56-1.69v-8.19l1.69-1.69h8.19l1.69,1.69v8.19
		l-1.69,1.69H74.34z M87.34,34.824l-1.56-1.69v-8.19l1.69-1.69h8.19l1.69,1.69v8.19l-1.69,1.69H87.34z M87.34,47.824l-1.56-1.69
		v-8.19l1.69-1.69h8.19l1.69,1.69v8.19l-1.69,1.69H87.34z M87.34,60.824l-1.56-1.69v-8.19l1.69-1.69h8.19l1.69,1.69v8.19l-1.69,1.69
		H87.34z M87.34,86.824l-1.56-1.69v-8.19l1.69-1.69h8.19l1.69,1.69v8.19l-1.69,1.69H87.34z M87.34,99.824l-1.56-1.69v-8.19
		l1.69-1.69h8.19l1.69,1.69v8.19l-1.69,1.69H87.34z M87.34,112.824l-1.56-1.69v-8.19l1.69-1.69h8.19l1.69,1.69v8.19l-1.69,1.69
		H87.34z"/>
	<path fill="#186536" d="M113.339,60.824l-1.56-1.69v-8.19l1.69-1.69h8.19l1.69,1.69v8.19l-1.69,1.69H113.339z M113.339,73.824
		l-1.56-1.69v-8.19l1.69-1.69h8.19l1.69,1.69v8.19l-1.69,1.69H113.339z M113.339,86.824l-1.56-1.69v-8.19l1.69-1.69h8.19l1.69,1.69
		v8.19l-1.69,1.69H113.339z M113.339,99.824l-1.56-1.69v-8.19l1.69-1.69h8.19l1.69,1.69v8.19l-1.69,1.69H113.339z M126.339,47.824
		l-1.56-1.69v-8.19l1.69-1.69h8.19l1.69,1.69v8.19l-1.69,1.69H126.339z M126.339,60.824l-1.56-1.69v-8.19l1.69-1.69h8.19l1.69,1.69
		v8.19l-1.69,1.69H126.339z M126.339,73.824l-1.56-1.69v-8.19l1.69-1.69h8.19l1.69,1.69v8.19l-1.69,1.69H126.339z M126.339,86.824
		l-1.56-1.69v-8.19l1.69-1.69h8.19l1.69,1.69v8.19l-1.69,1.69H126.339z M126.339,99.824l-1.56-1.69v-8.19l1.69-1.69h8.19l1.69,1.69
		v8.19l-1.69,1.69H126.339z M126.339,112.824l-1.56-1.69v-8.19l1.69-1.69h8.19l1.69,1.69v8.19l-1.69,1.69H126.339z M139.339,47.824
		l-1.56-1.69v-8.19l1.69-1.69h8.19l1.69,1.69v8.19l-1.69,1.69H139.339z M139.339,86.824l-1.56-1.69v-8.19l1.69-1.69h8.19l1.69,1.69
		v8.19l-1.69,1.69H139.339z M139.339,112.824l-1.56-1.69v-8.19l1.69-1.69h8.19l1.69,1.69v8.19l-1.69,1.69H139.339z M152.339,47.824
		l-1.56-1.69v-8.19l1.69-1.69h8.19l1.69,1.69v8.19l-1.69,1.69H152.339z M152.339,60.824l-1.56-1.69v-8.19l1.69-1.69h8.19l1.69,1.69
		v8.19l-1.69,1.69H152.339z M152.339,73.824l-1.56-1.69v-8.19l1.69-1.69h8.19l1.69,1.69v8.19l-1.69,1.69H152.339z M152.339,86.824
		l-1.56-1.69v-8.19l1.69-1.69h8.19l1.69,1.69v8.19l-1.69,1.69H152.339z M152.339,112.824l-1.56-1.69v-8.19l1.69-1.69h8.19l1.69,1.69
		v8.19l-1.69,1.69H152.339z M165.339,60.824l-1.56-1.69v-8.19l1.69-1.69h8.19l1.69,1.69v8.19l-1.69,1.69H165.339z M165.339,73.824
		l-1.56-1.69v-8.19l1.69-1.69h8.19l1.69,1.69v8.19l-1.69,1.69H165.339z M165.339,86.824l-1.56-1.69v-8.19l1.69-1.69h8.19l1.69,1.69
		v8.19l-1.69,1.69H165.339z"/>
	<path fill="#186536" d="M191.338,60.824l-1.56-1.69v-8.19l1.69-1.69h8.19l1.69,1.69v8.19l-1.69,1.69H191.338z M191.338,73.824
		l-1.56-1.69v-8.19l1.69-1.69h8.19l1.69,1.69v8.19l-1.69,1.69H191.338z M191.338,86.824l-1.56-1.69v-8.19l1.69-1.69h8.19l1.69,1.69
		v8.19l-1.69,1.69H191.338z M191.338,112.824l-1.56-1.69v-8.19l1.69-1.69h8.19l1.69,1.69v8.19l-1.69,1.69H191.338z M204.338,47.824
		l-1.56-1.69v-8.19l1.69-1.69h8.19l1.69,1.69v8.19l-1.69,1.69H204.338z M204.338,60.824l-1.56-1.69v-8.19l1.69-1.69h8.19l1.69,1.69
		v8.19l-1.69,1.69H204.338z M204.338,73.824l-1.56-1.69v-8.19l1.69-1.69h8.19l1.69,1.69v8.19l-1.69,1.69H204.338z M204.338,86.824
		l-1.56-1.69v-8.19l1.69-1.69h8.19l1.69,1.69v8.19l-1.69,1.69H204.338z M204.338,112.824l-1.56-1.69v-8.19l1.69-1.69h8.19l1.69,1.69
		v8.19l-1.69,1.69H204.338z M217.338,47.824l-1.56-1.69v-8.19l1.69-1.69h8.19l1.69,1.69v8.19l-1.69,1.69H217.338z M217.338,73.824
		l-1.56-1.69v-8.19l1.69-1.69h8.19l1.69,1.69v8.19l-1.69,1.69H217.338z M217.338,86.824l-1.56-1.69v-8.19l1.69-1.69h8.19l1.69,1.69
		v8.19l-1.69,1.69H217.338z M217.338,99.824l-1.56-1.69v-8.19l1.69-1.69h8.19l1.69,1.69v8.19l-1.69,1.69H217.338z M217.338,112.824
		l-1.56-1.69v-8.19l1.69-1.69h8.19l1.69,1.69v8.19l-1.69,1.69H217.338z M230.338,47.824l-1.56-1.69v-8.19l1.69-1.69h8.19l1.69,1.69
		v8.19l-1.69,1.69H230.338z M230.338,73.824l-1.56-1.69v-8.19l1.69-1.69h8.19l1.69,1.69v8.19l-1.69,1.69H230.338z M230.338,86.824
		l-1.56-1.69v-8.19l1.69-1.69h8.19l1.69,1.69v8.19l-1.69,1.69H230.338z M230.338,99.824l-1.56-1.69v-8.19l1.69-1.69h8.19l1.69,1.69
		v8.19l-1.69,1.69H230.338z"/>
	<path fill="#186536" d="M256.338,60.824l-1.56-1.69v-8.19l1.69-1.69h8.19l1.69,1.69v8.19l-1.69,1.69H256.338z M256.338,73.824
		l-1.56-1.69v-8.19l1.69-1.69h8.19l1.69,1.69v8.19l-1.69,1.69H256.338z M256.338,86.824l-1.56-1.69v-8.19l1.69-1.69h8.19l1.69,1.69
		v8.19l-1.69,1.69H256.338z M256.338,99.824l-1.56-1.69v-8.19l1.69-1.69h8.19l1.69,1.69v8.19l-1.69,1.69H256.338z M269.338,47.824
		l-1.56-1.69v-8.19l1.69-1.69h8.19l1.69,1.69v8.19l-1.69,1.69H269.338z M269.338,60.824l-1.56-1.69v-8.19l1.69-1.69h8.19l1.69,1.69
		v8.19l-1.69,1.69H269.338z M269.338,73.824l-1.56-1.69v-8.19l1.69-1.69h8.19l1.69,1.69v8.19l-1.69,1.69H269.338z M269.338,86.824
		l-1.56-1.69v-8.19l1.69-1.69h8.19l1.69,1.69v8.19l-1.69,1.69H269.338z M269.338,99.824l-1.56-1.69v-8.19l1.69-1.69h8.19l1.69,1.69
		v8.19l-1.69,1.69H269.338z M269.338,112.824l-1.56-1.69v-8.19l1.69-1.69h8.19l1.69,1.69v8.19l-1.69,1.69H269.338z M282.338,47.824
		l-1.56-1.69v-8.19l1.69-1.69h8.19l1.69,1.69v8.19l-1.69,1.69H282.338z M282.338,86.824l-1.56-1.69v-8.19l1.69-1.69h8.19l1.69,1.69
		v8.19l-1.69,1.69H282.338z M282.338,112.824l-1.56-1.69v-8.19l1.69-1.69h8.19l1.69,1.69v8.19l-1.69,1.69H282.338z M295.338,47.824
		l-1.56-1.69v-8.19l1.69-1.69h8.19l1.69,1.69v8.19l-1.69,1.69H295.338z M295.338,60.824l-1.56-1.69v-8.19l1.69-1.69h8.19l1.69,1.69
		v8.19l-1.69,1.69H295.338z M295.338,73.824l-1.56-1.69v-8.19l1.69-1.69h8.19l1.69,1.69v8.19l-1.69,1.69H295.338z M295.338,86.824
		l-1.56-1.69v-8.19l1.69-1.69h8.19l1.69,1.69v8.19l-1.69,1.69H295.338z M295.338,112.824l-1.56-1.69v-8.19l1.69-1.69h8.19l1.69,1.69
		v8.19l-1.69,1.69H295.338z M308.338,60.824l-1.56-1.69v-8.19l1.69-1.69h8.19l1.69,1.69v8.19l-1.69,1.69H308.338z M308.338,73.824
		l-1.56-1.69v-8.19l1.69-1.69h8.19l1.69,1.69v8.19l-1.69,1.69H308.338z M308.338,86.824l-1.56-1.69v-8.19l1.69-1.69h8.19l1.69,1.69
		v8.19l-1.69,1.69H308.338z"/>
	<path fill="#186536" d="M334.337,73.824l-1.56-1.69v-8.19l1.69-1.69h8.19l1.69,1.69v8.19l-1.69,1.69H334.337z M334.337,86.824
		l-1.56-1.69v-8.19l1.69-1.69h8.19l1.69,1.69v8.19l-1.69,1.69H334.337z M334.337,99.824l-1.56-1.69v-8.19l1.69-1.69h8.19l1.69,1.69
		v8.19l-1.69,1.69H334.337z M347.337,47.824l-1.56-1.69v-8.19l1.69-1.69h8.19l1.69,1.69v8.19l-1.69,1.69H347.337z M347.337,73.824
		l-1.56-1.69v-8.19l1.69-1.69h8.19l1.69,1.69v8.19l-1.69,1.69H347.337z M347.337,86.824l-1.56-1.69v-8.19l1.69-1.69h8.19l1.69,1.69
		v8.19l-1.69,1.69H347.337z M347.337,99.824l-1.56-1.69v-8.19l1.69-1.69h8.19l1.69,1.69v8.19l-1.69,1.69H347.337z M347.337,112.824
		l-1.56-1.69v-8.19l1.69-1.69h8.19l1.69,1.69v8.19l-1.69,1.69H347.337z M360.337,47.824l-1.56-1.69v-8.19l1.69-1.69h8.19l1.69,1.69
		v8.19l-1.69,1.69H360.337z M360.337,73.824l-1.56-1.69v-8.19l1.69-1.69h8.19l1.69,1.69v8.19l-1.69,1.69H360.337z M360.337,112.824
		l-1.56-1.69v-8.19l1.69-1.69h8.19l1.69,1.69v8.19l-1.69,1.69H360.337z M373.337,47.824l-1.56-1.69v-8.19l1.69-1.69h8.19l1.69,1.69
		v8.19l-1.69,1.69H373.337z M373.337,60.824l-1.56-1.69v-8.19l1.69-1.69h8.19l1.69,1.69v8.19l-1.69,1.69H373.337z M373.337,73.824
		l-1.56-1.69v-8.19l1.69-1.69h8.19l1.69,1.69v8.19l-1.69,1.69H373.337z M373.337,86.824l-1.56-1.69v-8.19l1.69-1.69h8.19l1.69,1.69
		v8.19l-1.69,1.69H373.337z M373.337,99.824l-1.56-1.69v-8.19l1.69-1.69h8.19l1.69,1.69v8.19l-1.69,1.69H373.337z M373.337,112.824
		l-1.56-1.69v-8.19l1.69-1.69h8.19l1.69,1.69v8.19l-1.69,1.69H373.337z M386.337,60.824l-1.56-1.69v-8.19l1.69-1.69h8.19l1.69,1.69
		v8.19l-1.69,1.69H386.337z M386.337,73.824l-1.56-1.69v-8.19l1.69-1.69h8.19l1.69,1.69v8.19l-1.69,1.69H386.337z M386.337,86.824
		l-1.56-1.69v-8.19l1.69-1.69h8.19l1.69,1.69v8.19l-1.69,1.69H386.337z M386.337,99.824l-1.56-1.69v-8.19l1.69-1.69h8.19l1.69,1.69
		v8.19l-1.69,1.69H386.337z M386.337,112.824l-1.56-1.69v-8.19l1.69-1.69h8.19l1.69,1.69v8.19l-1.69,1.69H386.337z"/>
	<path fill="#186536" d="M412.336,47.824l-1.56-1.69v-8.19l1.69-1.69h8.19l1.69,1.69v8.19l-1.69,1.69H412.336z M412.336,60.824
		l-1.56-1.69v-8.19l1.69-1.69h8.19l1.69,1.69v8.19l-1.69,1.69H412.336z M412.336,73.824l-1.56-1.69v-8.19l1.69-1.69h8.19l1.69,1.69
		v8.19l-1.69,1.69H412.336z M412.336,86.824l-1.56-1.69v-8.19l1.69-1.69h8.19l1.69,1.69v8.19l-1.69,1.69H412.336z M412.336,99.824
		l-1.56-1.69v-8.19l1.69-1.69h8.19l1.69,1.69v8.19l-1.69,1.69H412.336z M412.336,112.824l-1.56-1.69v-8.19l1.69-1.69h8.19l1.69,1.69
		v8.19l-1.69,1.69H412.336z M425.336,47.824l-1.56-1.69v-8.19l1.69-1.69h8.19l1.69,1.69v8.19l-1.69,1.69H425.336z M425.336,60.824
		l-1.56-1.69v-8.19l1.69-1.69h8.19l1.69,1.69v8.19l-1.69,1.69H425.336z M425.336,73.824l-1.56-1.69v-8.19l1.69-1.69h8.19l1.69,1.69
		v8.19l-1.69,1.69H425.336z M425.336,86.824l-1.56-1.69v-8.19l1.69-1.69h8.19l1.69,1.69v8.19l-1.69,1.69H425.336z M425.336,99.824
		l-1.56-1.69v-8.19l1.69-1.69h8.19l1.69,1.69v8.19l-1.69,1.69H425.336z M425.336,112.824l-1.56-1.69v-8.19l1.69-1.69h8.19l1.69,1.69
		v8.19l-1.69,1.69H425.336z M438.336,60.824l-1.56-1.69v-8.19l1.69-1.69h8.19l1.69,1.69v8.19l-1.69,1.69H438.336z M451.336,47.824
		l-1.56-1.69v-8.19l1.69-1.69h8.19l1.69,1.69v8.19l-1.69,1.69H451.336z M451.336,60.824l-1.56-1.69v-8.19l1.69-1.69h8.19l1.69,1.69
		v8.19l-1.69,1.69H451.336z"/>
	<path fill="#186536" d="M474.086,60.824l-1.56-1.69v-8.19l1.69-1.69h8.19l1.69,1.69v8.19l-1.69,1.69H474.086z M474.086,73.824
		l-1.56-1.69v-8.19l1.69-1.69h8.19l1.69,1.69v8.19l-1.69,1.69H474.086z M474.086,86.824l-1.56-1.69v-8.19l1.69-1.69h8.19l1.69,1.69
		v8.19l-1.69,1.69H474.086z M474.086,99.824l-1.56-1.69v-8.19l1.69-1.69h8.19l1.69,1.69v8.19l-1.69,1.69H474.086z M487.086,47.824
		l-1.56-1.69v-8.19l1.69-1.69h8.19l1.69,1.69v8.19l-1.69,1.69H487.086z M487.086,60.824l-1.56-1.69v-8.19l1.69-1.69h8.19l1.69,1.69
		v8.19l-1.69,1.69H487.086z M487.086,73.824l-1.56-1.69v-8.19l1.69-1.69h8.19l1.69,1.69v8.19l-1.69,1.69H487.086z M487.086,86.824
		l-1.56-1.69v-8.19l1.69-1.69h8.19l1.69,1.69v8.19l-1.69,1.69H487.086z M487.086,99.824l-1.56-1.69v-8.19l1.69-1.69h8.19l1.69,1.69
		v8.19l-1.69,1.69H487.086z M487.086,112.824l-1.56-1.69v-8.19l1.69-1.69h8.19l1.69,1.69v8.19l-1.69,1.69H487.086z M500.086,47.824
		l-1.56-1.69v-8.19l1.69-1.69h8.19l1.69,1.69v8.19l-1.69,1.69H500.086z M500.086,112.824l-1.56-1.69v-8.19l1.69-1.69h8.19l1.69,1.69
		v8.19l-1.69,1.69H500.086z M513.086,47.824l-1.56-1.69v-8.19l1.69-1.69h8.19l1.69,1.69v8.19l-1.69,1.69H513.086z M513.086,112.824
		l-1.56-1.69v-8.19l1.69-1.69h8.19l1.69,1.69v8.19l-1.69,1.69H513.086z"/>
	<path fill="#186536" d="M539.086,21.824l-1.56-1.69v-8.19l1.69-1.69h8.19l1.69,1.69v8.19l-1.69,1.69H539.086z M539.086,34.824
		l-1.56-1.69v-8.19l1.69-1.69h8.19l1.69,1.69v8.19l-1.69,1.69H539.086z M539.086,47.824l-1.56-1.69v-8.19l1.69-1.69h8.19l1.69,1.69
		v8.19l-1.69,1.69H539.086z M539.086,60.824l-1.56-1.69v-8.19l1.69-1.69h8.19l1.69,1.69v8.19l-1.69,1.69H539.086z M539.086,73.824
		l-1.56-1.69v-8.19l1.69-1.69h8.19l1.69,1.69v8.19l-1.69,1.69H539.086z M539.086,86.824l-1.56-1.69v-8.19l1.69-1.69h8.19l1.69,1.69
		v8.19l-1.69,1.69H539.086z M539.086,99.824l-1.56-1.69v-8.19l1.69-1.69h8.19l1.69,1.69v8.19l-1.69,1.69H539.086z M539.086,112.824
		l-1.56-1.69v-8.19l1.69-1.69h8.19l1.69,1.69v8.19l-1.69,1.69H539.086z M552.086,21.824l-1.56-1.69v-8.19l1.69-1.69h8.19l1.69,1.69
		v8.19l-1.69,1.69H552.086z M552.086,34.824l-1.56-1.69v-8.19l1.69-1.69h8.19l1.69,1.69v8.19l-1.69,1.69H552.086z M552.086,47.824
		l-1.56-1.69v-8.19l1.69-1.69h8.19l1.69,1.69v8.19l-1.69,1.69H552.086z M552.086,60.824l-1.56-1.69v-8.19l1.69-1.69h8.19l1.69,1.69
		v8.19l-1.69,1.69H552.086z M552.086,73.824l-1.56-1.69v-8.19l1.69-1.69h8.19l1.69,1.69v8.19l-1.69,1.69H552.086z M552.086,86.824
		l-1.56-1.69v-8.19l1.69-1.69h8.19l1.69,1.69v8.19l-1.69,1.69H552.086z M552.086,99.824l-1.56-1.69v-8.19l1.69-1.69h8.19l1.69,1.69
		v8.19l-1.69,1.69H552.086z M552.086,112.824l-1.56-1.69v-8.19l1.69-1.69h8.19l1.69,1.69v8.19l-1.69,1.69H552.086z M565.086,47.824
		l-1.56-1.69v-8.19l1.69-1.69h8.19l1.69,1.69v8.19l-1.69,1.69H565.086z M578.086,47.824l-1.56-1.69v-8.19l1.69-1.69h8.19l1.69,1.69
		v8.19l-1.69,1.69H578.086z M578.086,60.824l-1.56-1.69v-8.19l1.69-1.69h8.19l1.69,1.69v8.19l-1.69,1.69H578.086z M578.086,73.824
		l-1.56-1.69v-8.19l1.69-1.69h8.19l1.69,1.69v8.19l-1.69,1.69H578.086z M578.086,86.824l-1.56-1.69v-8.19l1.69-1.69h8.19l1.69,1.69
		v8.19l-1.69,1.69H578.086z M578.086,99.824l-1.56-1.69v-8.19l1.69-1.69h8.19l1.69,1.69v8.19l-1.69,1.69H578.086z M578.086,112.824
		l-1.56-1.69v-8.19l1.69-1.69h8.19l1.69,1.69v8.19l-1.69,1.69H578.086z M591.086,60.824l-1.56-1.69v-8.19l1.69-1.69h8.19l1.69,1.69
		v8.19l-1.69,1.69H591.086z M591.086,73.824l-1.56-1.69v-8.19l1.69-1.69h8.19l1.69,1.69v8.19l-1.69,1.69H591.086z M591.086,86.824
		l-1.56-1.69v-8.19l1.69-1.69h8.19l1.69,1.69v8.19l-1.69,1.69H591.086z M591.086,99.824l-1.56-1.69v-8.19l1.69-1.69h8.19l1.69,1.69
		v8.19l-1.69,1.69H591.086z M591.086,112.824l-1.56-1.69v-8.19l1.69-1.69h8.19l1.69,1.69v8.19l-1.69,1.69H591.086z"/>
	<path fill="#186536" d="M617.085,99.824l-1.56-1.69v-8.19l1.69-1.69h8.19l1.69,1.69v8.19l-1.69,1.69H617.085z M617.085,125.824
		l-1.56-1.69v-8.19l1.69-1.69h8.19l1.69,1.69v8.19l-1.69,1.69H617.085z M630.085,99.824l-1.56-1.69v-8.19l1.69-1.69h8.19l1.69,1.69
		v8.19l-1.69,1.69H630.085z M630.085,112.824l-1.56-1.69v-8.19l1.69-1.69h8.19l1.69,1.69v8.19l-1.69,1.69H630.085z"/>
	<path fill="#186536" d="M695.082,21.824l-1.56-1.69v-8.19l1.69-1.69h8.19l1.69,1.69v8.19l-1.69,1.69H695.082z M695.082,34.824
		l-1.56-1.69v-8.19l1.69-1.69h8.19l1.69,1.69v8.19l-1.69,1.69H695.082z M695.082,47.824l-1.56-1.69v-8.19l1.69-1.69h8.19l1.69,1.69
		v8.19l-1.69,1.69H695.082z M695.082,60.824l-1.56-1.69v-8.19l1.69-1.69h8.19l1.69,1.69v8.19l-1.69,1.69H695.082z M695.082,73.824
		l-1.56-1.69v-8.19l1.69-1.69h8.19l1.69,1.69v8.19l-1.69,1.69H695.082z M695.082,86.824l-1.56-1.69v-8.19l1.69-1.69h8.19l1.69,1.69
		v8.19l-1.69,1.69H695.082z M695.082,99.824l-1.56-1.69v-8.19l1.69-1.69h8.19l1.69,1.69v8.19l-1.69,1.69H695.082z M695.082,112.824
		l-1.56-1.69v-8.19l1.69-1.69h8.19l1.69,1.69v8.19l-1.69,1.69H695.082z M708.082,21.824l-1.56-1.69v-8.19l1.69-1.69h8.19l1.69,1.69
		v8.19l-1.69,1.69H708.082z M708.082,34.824l-1.56-1.69v-8.19l1.69-1.69h8.19l1.69,1.69v8.19l-1.69,1.69H708.082z M708.082,47.824
		l-1.56-1.69v-8.19l1.69-1.69h8.19l1.69,1.69v8.19l-1.69,1.69H708.082z M708.082,60.824l-1.56-1.69v-8.19l1.69-1.69h8.19l1.69,1.69
		v8.19l-1.69,1.69H708.082z M708.082,73.824l-1.56-1.69v-8.19l1.69-1.69h8.19l1.69,1.69v8.19l-1.69,1.69H708.082z M708.082,86.824
		l-1.56-1.69v-8.19l1.69-1.69h8.19l1.69,1.69v8.19l-1.69,1.69H708.082z M708.082,99.824l-1.56-1.69v-8.19l1.69-1.69h8.19l1.69,1.69
		v8.19l-1.69,1.69H708.082z M708.082,112.824l-1.56-1.69v-8.19l1.69-1.69h8.19l1.69,1.69v8.19l-1.69,1.69H708.082z"/>
	<path fill="#186536" d="M734.08,47.824l-1.56-1.69v-8.19l1.69-1.69h8.19l1.69,1.69v8.19l-1.69,1.69H734.08z M734.08,60.824
		l-1.56-1.69v-8.19l1.69-1.69h8.19l1.69,1.69v8.19l-1.69,1.69H734.08z M734.08,73.824l-1.56-1.69v-8.19l1.69-1.69h8.19l1.69,1.69
		v8.19l-1.69,1.69H734.08z M734.08,86.824l-1.56-1.69v-8.19l1.69-1.69h8.19l1.69,1.69v8.19l-1.69,1.69H734.08z M734.08,99.824
		l-1.56-1.69v-8.19l1.69-1.69h8.19l1.69,1.69v8.19l-1.69,1.69H734.08z M734.08,112.824l-1.56-1.69v-8.19l1.69-1.69h8.19l1.69,1.69
		v8.19l-1.69,1.69H734.08z M747.08,47.824l-1.56-1.69v-8.19l1.69-1.69h8.19l1.69,1.69v8.19l-1.69,1.69H747.08z M747.08,60.824
		l-1.56-1.69v-8.19l1.69-1.69h8.19l1.69,1.69v8.19l-1.69,1.69H747.08z M747.08,73.824l-1.56-1.69v-8.19l1.69-1.69h8.19l1.69,1.69
		v8.19l-1.69,1.69H747.08z M747.08,86.824l-1.56-1.69v-8.19l1.69-1.69h8.19l1.69,1.69v8.19l-1.69,1.69H747.08z M747.08,99.824
		l-1.56-1.69v-8.19l1.69-1.69h8.19l1.69,1.69v8.19l-1.69,1.69H747.08z M747.08,112.824l-1.56-1.69v-8.19l1.69-1.69h8.19l1.69,1.69
		v8.19l-1.69,1.69H747.08z M760.08,47.824l-1.56-1.69v-8.19l1.69-1.69h8.19l1.69,1.69v8.19l-1.69,1.69H760.08z M773.08,47.824
		l-1.56-1.69v-8.19l1.69-1.69h8.19l1.69,1.69v8.19l-1.69,1.69H773.08z M773.08,60.824l-1.56-1.69v-8.19l1.69-1.69h8.19l1.69,1.69
		v8.19l-1.69,1.69H773.08z M773.08,73.824l-1.56-1.69v-8.19l1.69-1.69h8.19l1.69,1.69v8.19l-1.69,1.69H773.08z M773.08,86.824
		l-1.56-1.69v-8.19l1.69-1.69h8.19l1.69,1.69v8.19l-1.69,1.69H773.08z M773.08,99.824l-1.56-1.69v-8.19l1.69-1.69h8.19l1.69,1.69
		v8.19l-1.69,1.69H773.08z M773.08,112.824l-1.56-1.69v-8.19l1.69-1.69h8.19l1.69,1.69v8.19l-1.69,1.69H773.08z M786.08,60.824
		l-1.56-1.69v-8.19l1.69-1.69h8.19l1.69,1.69v8.19l-1.69,1.69H786.08z M786.08,73.824l-1.56-1.69v-8.19l1.69-1.69h8.19l1.69,1.69
		v8.19l-1.69,1.69H786.08z M786.08,86.824l-1.56-1.69v-8.19l1.69-1.69h8.19l1.69,1.69v8.19l-1.69,1.69H786.08z M786.08,99.824
		l-1.56-1.69v-8.19l1.69-1.69h8.19l1.69,1.69v8.19l-1.69,1.69H786.08z M786.08,112.824l-1.56-1.69v-8.19l1.69-1.69h8.19l1.69,1.69
		v8.19l-1.69,1.69H786.08z"/>
	<path fill="#186536" d="M812.079,47.824l-1.56-1.69v-8.19l1.69-1.69h8.19l1.69,1.69v8.19l-1.69,1.69H812.079z M812.079,60.824
		l-1.56-1.69v-8.19l1.69-1.69h8.19l1.69,1.69v8.19l-1.69,1.69H812.079z M812.079,73.824l-1.56-1.69v-8.19l1.69-1.69h8.19l1.69,1.69
		v8.19l-1.69,1.69H812.079z M812.079,86.824l-1.56-1.69v-8.19l1.69-1.69h8.19l1.69,1.69v8.19l-1.69,1.69H812.079z M812.079,99.824
		l-1.56-1.69v-8.19l1.69-1.69h8.19l1.69,1.69v8.19l-1.69,1.69H812.079z M812.079,112.824l-1.56-1.69v-8.19l1.69-1.69h8.19l1.69,1.69
		v8.19l-1.69,1.69H812.079z M825.079,47.824l-1.56-1.69v-8.19l1.69-1.69h8.19l1.69,1.69v8.19l-1.69,1.69H825.079z M825.079,60.824
		l-1.56-1.69v-8.19l1.69-1.69h8.19l1.69,1.69v8.19l-1.69,1.69H825.079z M825.079,73.824l-1.56-1.69v-8.19l1.69-1.69h8.19l1.69,1.69
		v8.19l-1.69,1.69H825.079z M825.079,86.824l-1.56-1.69v-8.19l1.69-1.69h8.19l1.69,1.69v8.19l-1.69,1.69H825.079z M825.079,99.824
		l-1.56-1.69v-8.19l1.69-1.69h8.19l1.69,1.69v8.19l-1.69,1.69H825.079z M825.079,112.824l-1.56-1.69v-8.19l1.69-1.69h8.19l1.69,1.69
		v8.19l-1.69,1.69H825.079z M838.079,47.824l-1.56-1.69v-8.19l1.69-1.69h8.19l1.69,1.69v8.19l-1.69,1.69H838.079z M851.079,47.824
		l-1.56-1.69v-8.19l1.69-1.69h8.19l1.69,1.69v8.19l-1.69,1.69H851.079z M851.079,60.824l-1.56-1.69v-8.19l1.69-1.69h8.19l1.69,1.69
		v8.19l-1.69,1.69H851.079z M851.079,73.824l-1.56-1.69v-8.19l1.69-1.69h8.19l1.69,1.69v8.19l-1.69,1.69H851.079z M851.079,86.824
		l-1.56-1.69v-8.19l1.69-1.69h8.19l1.69,1.69v8.19l-1.69,1.69H851.079z M851.079,99.824l-1.56-1.69v-8.19l1.69-1.69h8.19l1.69,1.69
		v8.19l-1.69,1.69H851.079z M851.079,112.824l-1.56-1.69v-8.19l1.69-1.69h8.19l1.69,1.69v8.19l-1.69,1.69H851.079z M864.079,60.824
		l-1.56-1.69v-8.19l1.69-1.69h8.19l1.69,1.69v8.19l-1.69,1.69H864.079z M864.079,73.824l-1.56-1.69v-8.19l1.69-1.69h8.19l1.69,1.69
		v8.19l-1.69,1.69H864.079z M864.079,86.824l-1.56-1.69v-8.19l1.69-1.69h8.19l1.69,1.69v8.19l-1.69,1.69H864.079z M864.079,99.824
		l-1.56-1.69v-8.19l1.69-1.69h8.19l1.69,1.69v8.19l-1.69,1.69H864.079z M864.079,112.824l-1.56-1.69v-8.19l1.69-1.69h8.19l1.69,1.69
		v8.19l-1.69,1.69H864.079z"/>
	<path fill="#186536" d="M890.078,60.824l-1.56-1.69v-8.19l1.69-1.69h8.19l1.69,1.69v8.19l-1.69,1.69H890.078z M890.078,73.824
		l-1.56-1.69v-8.19l1.69-1.69h8.19l1.69,1.69v8.19l-1.69,1.69H890.078z M890.078,86.824l-1.56-1.69v-8.19l1.69-1.69h8.19l1.69,1.69
		v8.19l-1.69,1.69H890.078z M890.078,99.824l-1.56-1.69v-8.19l1.69-1.69h8.19l1.69,1.69v8.19l-1.69,1.69H890.078z M903.078,47.824
		l-1.56-1.69v-8.19l1.69-1.69h8.19l1.69,1.69v8.19l-1.69,1.69H903.078z M903.078,60.824l-1.56-1.69v-8.19l1.69-1.69h8.19l1.69,1.69
		v8.19l-1.69,1.69H903.078z M903.078,73.824l-1.56-1.69v-8.19l1.69-1.69h8.19l1.69,1.69v8.19l-1.69,1.69H903.078z M903.078,86.824
		l-1.56-1.69v-8.19l1.69-1.69h8.19l1.69,1.69v8.19l-1.69,1.69H903.078z M903.078,99.824l-1.56-1.69v-8.19l1.69-1.69h8.19l1.69,1.69
		v8.19l-1.69,1.69H903.078z M903.078,112.824l-1.56-1.69v-8.19l1.69-1.69h8.19l1.69,1.69v8.19l-1.69,1.69H903.078z M916.078,47.824
		l-1.56-1.69v-8.19l1.69-1.69h8.19l1.69,1.69v8.19l-1.69,1.69H916.078z M916.078,112.824l-1.56-1.69v-8.19l1.69-1.69h8.19l1.69,1.69
		v8.19l-1.69,1.69H916.078z M929.078,47.824l-1.56-1.69v-8.19l1.69-1.69h8.19l1.69,1.69v8.19l-1.69,1.69H929.078z M929.078,60.824
		l-1.56-1.69v-8.19l1.69-1.69h8.19l1.69,1.69v8.19l-1.69,1.69H929.078z M929.078,73.824l-1.56-1.69v-8.19l1.69-1.69h8.19l1.69,1.69
		v8.19l-1.69,1.69H929.078z M929.078,86.824l-1.56-1.69v-8.19l1.69-1.69h8.19l1.69,1.69v8.19l-1.69,1.69H929.078z M929.078,99.824
		l-1.56-1.69v-8.19l1.69-1.69h8.19l1.69,1.69v8.19l-1.69,1.69H929.078z M929.078,112.824l-1.56-1.69v-8.19l1.69-1.69h8.19l1.69,1.69
		v8.19l-1.69,1.69H929.078z M942.078,60.824l-1.56-1.69v-8.19l1.69-1.69h8.19l1.69,1.69v8.19l-1.69,1.69H942.078z M942.078,73.824
		l-1.56-1.69v-8.19l1.69-1.69h8.19l1.69,1.69v8.19l-1.69,1.69H942.078z M942.078,86.824l-1.56-1.69v-8.19l1.69-1.69h8.19l1.69,1.69
		v8.19l-1.69,1.69H942.078z M942.078,99.824l-1.56-1.69v-8.19l1.69-1.69h8.19l1.69,1.69v8.19l-1.69,1.69H942.078z"/>
	<path fill="#186536" d="M968.077,47.824l-1.56-1.69v-8.19l1.69-1.69h8.19l1.69,1.69v8.19l-1.69,1.69H968.077z M968.077,60.824
		l-1.56-1.69v-8.19l1.69-1.69h8.19l1.69,1.69v8.19l-1.69,1.69H968.077z M968.077,73.824l-1.56-1.69v-8.19l1.69-1.69h8.19l1.69,1.69
		v8.19l-1.69,1.69H968.077z M968.077,86.824l-1.56-1.69v-8.19l1.69-1.69h8.19l1.69,1.69v8.19l-1.69,1.69H968.077z M981.077,47.824
		l-1.56-1.69v-8.19l1.69-1.69h8.19l1.69,1.69v8.19l-1.69,1.69H981.077z M981.077,60.824l-1.56-1.69v-8.19l1.69-1.69h8.19l1.69,1.69
		v8.19l-1.69,1.69H981.077z M981.077,73.824l-1.56-1.69v-8.19l1.69-1.69h8.19l1.69,1.69v8.19l-1.69,1.69H981.077z M981.077,86.824
		l-1.56-1.69v-8.19l1.69-1.69h8.19l1.69,1.69v8.19l-1.69,1.69H981.077z M981.077,99.824l-1.56-1.69v-8.19l1.69-1.69h8.19l1.69,1.69
		v8.19l-1.69,1.69H981.077z M994.077,99.824l-1.56-1.69v-8.19l1.69-1.69h8.19l1.69,1.69v8.19l-1.69,1.69H994.077z M994.077,112.824
		l-1.56-1.69v-8.19l1.69-1.69h8.19l1.69,1.69v8.19l-1.69,1.69H994.077z M1007.077,47.824l-1.56-1.69v-8.19l1.69-1.69h8.19l1.69,1.69
		v8.19l-1.69,1.69H1007.077z M1007.077,60.824l-1.56-1.69v-8.19l1.69-1.69h8.19l1.69,1.69v8.19l-1.69,1.69H1007.077z
		 M1007.077,73.824l-1.56-1.69v-8.19l1.69-1.69h8.19l1.69,1.69v8.19l-1.69,1.69H1007.077z M1007.077,86.824l-1.56-1.69v-8.19
		l1.69-1.69h8.19l1.69,1.69v8.19l-1.69,1.69H1007.077z M1007.077,99.824l-1.56-1.69v-8.19l1.69-1.69h8.19l1.69,1.69v8.19l-1.69,1.69
		H1007.077z M1020.077,47.824l-1.56-1.69v-8.19l1.69-1.69h8.19l1.69,1.69v8.19l-1.69,1.69H1020.077z M1020.077,60.824l-1.56-1.69
		v-8.19l1.69-1.69h8.19l1.69,1.69v8.19l-1.69,1.69H1020.077z M1020.077,73.824l-1.56-1.69v-8.19l1.69-1.69h8.19l1.69,1.69v8.19
		l-1.69,1.69H1020.077z M1020.077,86.824l-1.56-1.69v-8.19l1.69-1.69h8.19l1.69,1.69v8.19l-1.69,1.69H1020.077z"/>
	<path fill="#186536" d="M1046.075,73.824l-1.56-1.69v-8.19l1.69-1.69h8.19l1.69,1.69v8.19l-1.69,1.69H1046.075z M1046.075,86.824
		l-1.56-1.69v-8.19l1.69-1.69h8.19l1.69,1.69v8.19l-1.69,1.69H1046.075z M1046.075,99.824l-1.56-1.69v-8.19l1.69-1.69h8.19
		l1.69,1.69v8.19l-1.69,1.69H1046.075z M1059.075,47.824l-1.56-1.69v-8.19l1.69-1.69h8.19l1.69,1.69v8.19l-1.69,1.69H1059.075z
		 M1059.075,73.824l-1.56-1.69v-8.19l1.69-1.69h8.19l1.69,1.69v8.19l-1.69,1.69H1059.075z M1059.075,86.824l-1.56-1.69v-8.19
		l1.69-1.69h8.19l1.69,1.69v8.19l-1.69,1.69H1059.075z M1059.075,99.824l-1.56-1.69v-8.19l1.69-1.69h8.19l1.69,1.69v8.19l-1.69,1.69
		H1059.075z M1059.075,112.824l-1.56-1.69v-8.19l1.69-1.69h8.19l1.69,1.69v8.19l-1.69,1.69H1059.075z M1072.075,47.824l-1.56-1.69
		v-8.19l1.69-1.69h8.19l1.69,1.69v8.19l-1.69,1.69H1072.075z M1072.075,73.824l-1.56-1.69v-8.19l1.69-1.69h8.19l1.69,1.69v8.19
		l-1.69,1.69H1072.075z M1072.075,112.824l-1.56-1.69v-8.19l1.69-1.69h8.19l1.69,1.69v8.19l-1.69,1.69H1072.075z M1085.075,47.824
		l-1.56-1.69v-8.19l1.69-1.69h8.19l1.69,1.69v8.19l-1.69,1.69H1085.075z M1085.075,60.824l-1.56-1.69v-8.19l1.69-1.69h8.19
		l1.69,1.69v8.19l-1.69,1.69H1085.075z M1085.075,73.824l-1.56-1.69v-8.19l1.69-1.69h8.19l1.69,1.69v8.19l-1.69,1.69H1085.075z
		 M1085.075,86.824l-1.56-1.69v-8.19l1.69-1.69h8.19l1.69,1.69v8.19l-1.69,1.69H1085.075z M1085.075,99.824l-1.56-1.69v-8.19
		l1.69-1.69h8.19l1.69,1.69v8.19l-1.69,1.69H1085.075z M1085.075,112.824l-1.56-1.69v-8.19l1.69-1.69h8.19l1.69,1.69v8.19
		l-1.69,1.69H1085.075z M1098.075,60.824l-1.56-1.69v-8.19l1.69-1.69h8.19l1.69,1.69v8.19l-1.69,1.69H1098.075z M1098.075,73.824
		l-1.56-1.69v-8.19l1.69-1.69h8.19l1.69,1.69v8.19l-1.69,1.69H1098.075z M1098.075,86.824l-1.56-1.69v-8.19l1.69-1.69h8.19
		l1.69,1.69v8.19l-1.69,1.69H1098.075z M1098.075,99.824l-1.56-1.69v-8.19l1.69-1.69h8.19l1.69,1.69v8.19l-1.69,1.69H1098.075z
		 M1098.075,112.824l-1.56-1.69v-8.19l1.69-1.69h8.19l1.69,1.69v8.19l-1.69,1.69H1098.075z"/>
	<path fill="#186536" d="M1124.074,34.824l-1.56-1.69v-8.19l1.689-1.69h8.19l1.689,1.69v8.19l-1.689,1.69H1124.074z
		 M1124.074,47.824l-1.56-1.69v-8.19l1.689-1.69h8.19l1.689,1.69v8.19l-1.689,1.69H1124.074z M1124.074,60.824l-1.56-1.69v-8.19
		l1.689-1.69h8.19l1.689,1.69v8.19l-1.689,1.69H1124.074z M1124.074,73.824l-1.56-1.69v-8.19l1.689-1.69h8.19l1.689,1.69v8.19
		l-1.689,1.69H1124.074z M1124.074,86.824l-1.56-1.69v-8.19l1.689-1.69h8.19l1.689,1.69v8.19l-1.689,1.69H1124.074z
		 M1124.074,99.824l-1.56-1.69v-8.19l1.689-1.69h8.19l1.689,1.69v8.19l-1.689,1.69H1124.074z M1137.074,34.824l-1.56-1.69v-8.19
		l1.689-1.69h8.19l1.689,1.69v8.19l-1.689,1.69H1137.074z M1137.074,47.824l-1.56-1.69v-8.19l1.689-1.69h8.19l1.689,1.69v8.19
		l-1.689,1.69H1137.074z M1137.074,60.824l-1.56-1.69v-8.19l1.689-1.69h8.19l1.689,1.69v8.19l-1.689,1.69H1137.074z
		 M1137.074,73.824l-1.56-1.69v-8.19l1.689-1.69h8.19l1.689,1.69v8.19l-1.689,1.69H1137.074z M1137.074,86.824l-1.56-1.69v-8.19
		l1.689-1.69h8.19l1.689,1.69v8.19l-1.689,1.69H1137.074z M1137.074,99.824l-1.56-1.69v-8.19l1.689-1.69h8.19l1.689,1.69v8.19
		l-1.689,1.69H1137.074z M1137.074,112.824l-1.56-1.69v-8.19l1.689-1.69h8.19l1.689,1.69v8.19l-1.689,1.69H1137.074z
		 M1150.074,47.824l-1.56-1.69v-8.19l1.689-1.69h8.19l1.689,1.69v8.19l-1.689,1.69H1150.074z M1150.074,112.824l-1.56-1.69v-8.19
		l1.689-1.69h8.19l1.689,1.69v8.19l-1.689,1.69H1150.074z M1163.074,47.824l-1.56-1.69v-8.19l1.689-1.69h8.19l1.689,1.69v8.19
		l-1.689,1.69H1163.074z M1163.074,112.824l-1.56-1.69v-8.19l1.689-1.69h8.19l1.689,1.69v8.19l-1.689,1.69H1163.074z"/>
	<path fill="#186536" d="M1189.075,21.824l-1.56-1.69v-8.19l1.689-1.69h8.19l1.689,1.69v8.19l-1.689,1.69H1189.075z
		 M1189.075,47.824l-1.56-1.69v-8.19l1.689-1.69h8.19l1.689,1.69v8.19l-1.689,1.69H1189.075z M1189.075,60.824l-1.56-1.69v-8.19
		l1.689-1.69h8.19l1.689,1.69v8.19l-1.689,1.69H1189.075z M1189.075,73.824l-1.56-1.69v-8.19l1.689-1.69h8.19l1.689,1.69v8.19
		l-1.689,1.69H1189.075z M1189.075,86.824l-1.56-1.69v-8.19l1.689-1.69h8.19l1.689,1.69v8.19l-1.689,1.69H1189.075z
		 M1189.075,99.824l-1.56-1.69v-8.19l1.689-1.69h8.19l1.689,1.69v8.19l-1.689,1.69H1189.075z M1189.075,112.824l-1.56-1.69v-8.19
		l1.689-1.69h8.19l1.689,1.69v8.19l-1.689,1.69H1189.075z M1202.075,21.824l-1.56-1.69v-8.19l1.689-1.69h8.19l1.689,1.69v8.19
		l-1.689,1.69H1202.075z M1202.075,47.824l-1.56-1.69v-8.19l1.689-1.69h8.19l1.689,1.69v8.19l-1.689,1.69H1202.075z
		 M1202.075,60.824l-1.56-1.69v-8.19l1.689-1.69h8.19l1.689,1.69v8.19l-1.689,1.69H1202.075z M1202.075,73.824l-1.56-1.69v-8.19
		l1.689-1.69h8.19l1.689,1.69v8.19l-1.689,1.69H1202.075z M1202.075,86.824l-1.56-1.69v-8.19l1.689-1.69h8.19l1.689,1.69v8.19
		l-1.689,1.69H1202.075z M1202.075,99.824l-1.56-1.69v-8.19l1.689-1.69h8.19l1.689,1.69v8.19l-1.689,1.69H1202.075z
		 M1202.075,112.824l-1.56-1.69v-8.19l1.689-1.69h8.19l1.689,1.69v8.19l-1.689,1.69H1202.075z"/>
	<path fill="#186536" d="M1228.073,60.824l-1.56-1.69v-8.19l1.689-1.69h8.19l1.689,1.69v8.19l-1.689,1.69H1228.073z
		 M1228.073,73.824l-1.56-1.69v-8.19l1.689-1.69h8.19l1.689,1.69v8.19l-1.689,1.69H1228.073z M1228.073,86.824l-1.56-1.69v-8.19
		l1.689-1.69h8.19l1.689,1.69v8.19l-1.689,1.69H1228.073z M1228.073,99.824l-1.56-1.69v-8.19l1.689-1.69h8.19l1.689,1.69v8.19
		l-1.689,1.69H1228.073z M1241.073,47.824l-1.56-1.69v-8.19l1.689-1.69h8.19l1.689,1.69v8.19l-1.689,1.69H1241.073z
		 M1241.073,60.824l-1.56-1.69v-8.19l1.689-1.69h8.19l1.689,1.69v8.19l-1.689,1.69H1241.073z M1241.073,73.824l-1.56-1.69v-8.19
		l1.689-1.69h8.19l1.689,1.69v8.19l-1.689,1.69H1241.073z M1241.073,86.824l-1.56-1.69v-8.19l1.689-1.69h8.19l1.689,1.69v8.19
		l-1.689,1.69H1241.073z M1241.073,99.824l-1.56-1.69v-8.19l1.689-1.69h8.19l1.689,1.69v8.19l-1.689,1.69H1241.073z
		 M1241.073,112.824l-1.56-1.69v-8.19l1.689-1.69h8.19l1.689,1.69v8.19l-1.689,1.69H1241.073z M1254.073,47.824l-1.56-1.69v-8.19
		l1.689-1.69h8.19l1.689,1.69v8.19l-1.689,1.69H1254.073z M1254.073,112.824l-1.56-1.69v-8.19l1.689-1.69h8.19l1.689,1.69v8.19
		l-1.689,1.69H1254.073z M1267.073,47.824l-1.56-1.69v-8.19l1.689-1.69h8.19l1.689,1.69v8.19l-1.689,1.69H1267.073z
		 M1267.073,60.824l-1.56-1.69v-8.19l1.689-1.69h8.19l1.689,1.69v8.19l-1.689,1.69H1267.073z M1267.073,73.824l-1.56-1.69v-8.19
		l1.689-1.69h8.19l1.689,1.69v8.19l-1.689,1.69H1267.073z M1267.073,86.824l-1.56-1.69v-8.19l1.689-1.69h8.19l1.689,1.69v8.19
		l-1.689,1.69H1267.073z M1267.073,99.824l-1.56-1.69v-8.19l1.689-1.69h8.19l1.689,1.69v8.19l-1.689,1.69H1267.073z
		 M1267.073,112.824l-1.56-1.69v-8.19l1.689-1.69h8.19l1.689,1.69v8.19l-1.689,1.69H1267.073z M1280.073,60.824l-1.56-1.69v-8.19
		l1.689-1.69h8.19l1.689,1.69v8.19l-1.689,1.69H1280.073z M1280.073,73.824l-1.56-1.69v-8.19l1.689-1.69h8.19l1.689,1.69v8.19
		l-1.689,1.69H1280.073z M1280.073,86.824l-1.56-1.69v-8.19l1.689-1.69h8.19l1.689,1.69v8.19l-1.689,1.69H1280.073z
		 M1280.073,99.824l-1.56-1.69v-8.19l1.689-1.69h8.19l1.689,1.69v8.19l-1.689,1.69H1280.073z"/>
	<path fill="#186536" d="M1306.072,47.824l-1.56-1.69v-8.19l1.689-1.69h8.19l1.689,1.69v8.19l-1.689,1.69H1306.072z
		 M1306.072,60.824l-1.56-1.69v-8.19l1.689-1.69h8.19l1.689,1.69v8.19l-1.689,1.69H1306.072z M1306.072,73.824l-1.56-1.69v-8.19
		l1.689-1.69h8.19l1.689,1.69v8.19l-1.689,1.69H1306.072z M1306.072,86.824l-1.56-1.69v-8.19l1.689-1.69h8.19l1.689,1.69v8.19
		l-1.689,1.69H1306.072z M1306.072,99.824l-1.56-1.69v-8.19l1.689-1.69h8.19l1.689,1.69v8.19l-1.689,1.69H1306.072z
		 M1306.072,112.824l-1.56-1.69v-8.19l1.689-1.69h8.19l1.689,1.69v8.19l-1.689,1.69H1306.072z M1319.072,47.824l-1.56-1.69v-8.19
		l1.689-1.69h8.19l1.689,1.69v8.19l-1.689,1.69H1319.072z M1319.072,60.824l-1.56-1.69v-8.19l1.689-1.69h8.19l1.689,1.69v8.19
		l-1.689,1.69H1319.072z M1319.072,73.824l-1.56-1.69v-8.19l1.689-1.69h8.19l1.689,1.69v8.19l-1.689,1.69H1319.072z
		 M1319.072,86.824l-1.56-1.69v-8.19l1.689-1.69h8.19l1.689,1.69v8.19l-1.689,1.69H1319.072z M1319.072,99.824l-1.56-1.69v-8.19
		l1.689-1.69h8.19l1.689,1.69v8.19l-1.689,1.69H1319.072z M1319.072,112.824l-1.56-1.69v-8.19l1.689-1.69h8.19l1.689,1.69v8.19
		l-1.689,1.69H1319.072z M1332.072,47.824l-1.56-1.69v-8.19l1.689-1.69h8.19l1.689,1.69v8.19l-1.689,1.69H1332.072z
		 M1345.072,47.824l-1.56-1.69v-8.19l1.689-1.69h8.19l1.689,1.69v8.19l-1.689,1.69H1345.072z M1345.072,60.824l-1.56-1.69v-8.19
		l1.689-1.69h8.19l1.689,1.69v8.19l-1.689,1.69H1345.072z M1345.072,73.824l-1.56-1.69v-8.19l1.689-1.69h8.19l1.689,1.69v8.19
		l-1.689,1.69H1345.072z M1345.072,86.824l-1.56-1.69v-8.19l1.689-1.69h8.19l1.689,1.69v8.19l-1.689,1.69H1345.072z
		 M1345.072,99.824l-1.56-1.69v-8.19l1.689-1.69h8.19l1.689,1.69v8.19l-1.689,1.69H1345.072z M1345.072,112.824l-1.56-1.69v-8.19
		l1.689-1.69h8.19l1.689,1.69v8.19l-1.689,1.69H1345.072z M1358.072,60.824l-1.56-1.69v-8.19l1.689-1.69h8.19l1.689,1.69v8.19
		l-1.689,1.69H1358.072z M1358.072,73.824l-1.56-1.69v-8.19l1.689-1.69h8.19l1.689,1.69v8.19l-1.689,1.69H1358.072z
		 M1358.072,86.824l-1.56-1.69v-8.19l1.689-1.69h8.19l1.689,1.69v8.19l-1.689,1.69H1358.072z M1358.072,99.824l-1.56-1.69v-8.19
		l1.689-1.69h8.19l1.689,1.69v8.19l-1.689,1.69H1358.072z M1358.072,112.824l-1.56-1.69v-8.19l1.689-1.69h8.19l1.689,1.69v8.19
		l-1.689,1.69H1358.072z"/>
	<path fill="#186536" d="M1423.069,86.824l-1.56-1.69v-8.19l1.689-1.69h8.19l1.689,1.69v8.19l-1.689,1.69H1423.069z
		 M1423.069,99.824l-1.56-1.69v-8.19l1.689-1.69h8.19l1.689,1.69v8.19l-1.689,1.69H1423.069z M1436.069,34.824l-1.56-1.69v-8.19
		l1.689-1.69h8.19l1.689,1.69v8.19l-1.689,1.69H1436.069z M1436.069,47.824l-1.56-1.69v-8.19l1.689-1.69h8.19l1.689,1.69v8.19
		l-1.689,1.69H1436.069z M1436.069,73.824l-1.56-1.69v-8.19l1.689-1.69h8.19l1.689,1.69v8.19l-1.689,1.69H1436.069z
		 M1436.069,86.824l-1.56-1.69v-8.19l1.689-1.69h8.19l1.689,1.69v8.19l-1.689,1.69H1436.069z M1436.069,99.824l-1.56-1.69v-8.19
		l1.689-1.69h8.19l1.689,1.69v8.19l-1.689,1.69H1436.069z M1436.069,112.824l-1.56-1.69v-8.19l1.689-1.69h8.19l1.689,1.69v8.19
		l-1.689,1.69H1436.069z M1449.069,21.824l-1.56-1.69v-8.19l1.689-1.69h8.19l1.689,1.69v8.19l-1.689,1.69H1449.069z
		 M1449.069,34.824l-1.56-1.69v-8.19l1.689-1.69h8.19l1.689,1.69v8.19l-1.689,1.69H1449.069z M1449.069,47.824l-1.56-1.69v-8.19
		l1.689-1.69h8.19l1.689,1.69v8.19l-1.689,1.69H1449.069z M1449.069,60.824l-1.56-1.69v-8.19l1.689-1.69h8.19l1.689,1.69v8.19
		l-1.689,1.69H1449.069z M1449.069,73.824l-1.56-1.69v-8.19l1.689-1.69h8.19l1.689,1.69v8.19l-1.689,1.69H1449.069z
		 M1449.069,112.824l-1.56-1.69v-8.19l1.689-1.69h8.19l1.689,1.69v8.19l-1.689,1.69H1449.069z M1462.069,21.824l-1.56-1.69v-8.19
		l1.689-1.69h8.19l1.689,1.69v8.19l-1.689,1.69H1462.069z M1462.069,60.824l-1.56-1.69v-8.19l1.689-1.69h8.19l1.689,1.69v8.19
		l-1.689,1.69H1462.069z M1462.069,73.824l-1.56-1.69v-8.19l1.689-1.69h8.19l1.689,1.69v8.19l-1.689,1.69H1462.069z
		 M1462.069,86.824l-1.56-1.69v-8.19l1.689-1.69h8.19l1.689,1.69v8.19l-1.689,1.69H1462.069z M1462.069,112.824l-1.56-1.69v-8.19
		l1.689-1.69h8.19l1.689,1.69v8.19l-1.689,1.69H1462.069z M1475.069,34.824l-1.56-1.69v-8.19l1.689-1.69h8.19l1.689,1.69v8.19
		l-1.689,1.69H1475.069z M1475.069,47.824l-1.56-1.69v-8.19l1.689-1.69h8.19l1.689,1.69v8.19l-1.689,1.69H1475.069z
		 M1475.069,73.824l-1.56-1.69v-8.19l1.689-1.69h8.19l1.689,1.69v8.19l-1.689,1.69H1475.069z M1475.069,86.824l-1.56-1.69v-8.19
		l1.689-1.69h8.19l1.689,1.69v8.19l-1.689,1.69H1475.069z M1475.069,99.824l-1.56-1.69v-8.19l1.689-1.69h8.19l1.689,1.69v8.19
		l-1.689,1.69H1475.069z M1488.069,73.824l-1.56-1.69v-8.19l1.689-1.69h8.19l1.689,1.69v8.19l-1.689,1.69H1488.069z
		 M1488.069,99.824l-1.56-1.69v-8.19l1.689-1.69h8.19l1.689,1.69v8.19l-1.689,1.69H1488.069z M1488.069,112.824l-1.56-1.69v-8.19
		l1.689-1.69h8.19l1.689,1.69v8.19l-1.689,1.69H1488.069z M1501.069,47.824l-1.56-1.69v-8.19l1.689-1.69h8.19l1.689,1.69v8.19
		l-1.689,1.69H1501.069z M1501.069,60.824l-1.56-1.69v-8.19l1.689-1.69h8.19l1.689,1.69v8.19l-1.689,1.69H1501.069z
		 M1501.069,112.824l-1.56-1.69v-8.19l1.689-1.69h8.19l1.689,1.69v8.19l-1.689,1.69H1501.069z"/>
	<path fill="#186536" d="M1566.066,34.824l-1.56-1.69v-8.19l1.689-1.69h8.19l1.689,1.69v8.19l-1.689,1.69H1566.066z
		 M1566.066,47.824l-1.56-1.69v-8.19l1.689-1.69h8.19l1.689,1.69v8.19l-1.689,1.69H1566.066z M1566.066,60.824l-1.56-1.69v-8.19
		l1.689-1.69h8.19l1.689,1.69v8.19l-1.689,1.69H1566.066z M1566.066,73.824l-1.56-1.69v-8.19l1.689-1.69h8.19l1.689,1.69v8.19
		l-1.689,1.69H1566.066z M1566.066,86.824l-1.56-1.69v-8.19l1.689-1.69h8.19l1.689,1.69v8.19l-1.689,1.69H1566.066z
		 M1566.066,99.824l-1.56-1.69v-8.19l1.689-1.69h8.19l1.689,1.69v8.19l-1.689,1.69H1566.066z M1579.066,21.824l-1.56-1.69v-8.19
		l1.689-1.69h8.19l1.689,1.69v8.19l-1.689,1.69H1579.066z M1579.066,34.824l-1.56-1.69v-8.19l1.689-1.69h8.19l1.689,1.69v8.19
		l-1.689,1.69H1579.066z M1579.066,47.824l-1.56-1.69v-8.19l1.689-1.69h8.19l1.689,1.69v8.19l-1.689,1.69H1579.066z
		 M1579.066,60.824l-1.56-1.69v-8.19l1.689-1.69h8.19l1.689,1.69v8.19l-1.689,1.69H1579.066z M1579.066,73.824l-1.56-1.69v-8.19
		l1.689-1.69h8.19l1.689,1.69v8.19l-1.689,1.69H1579.066z M1579.066,86.824l-1.56-1.69v-8.19l1.689-1.69h8.19l1.689,1.69v8.19
		l-1.689,1.69H1579.066z M1579.066,99.824l-1.56-1.69v-8.19l1.689-1.69h8.19l1.689,1.69v8.19l-1.689,1.69H1579.066z
		 M1579.066,112.824l-1.56-1.69v-8.19l1.689-1.69h8.19l1.689,1.69v8.19l-1.689,1.69H1579.066z M1592.066,21.824l-1.56-1.69v-8.19
		l1.689-1.69h8.19l1.689,1.69v8.19l-1.689,1.69H1592.066z M1592.066,112.824l-1.56-1.69v-8.19l1.689-1.69h8.19l1.689,1.69v8.19
		l-1.689,1.69H1592.066z M1605.066,21.824l-1.56-1.69v-8.19l1.689-1.69h8.19l1.689,1.69v8.19l-1.689,1.69H1605.066z
		 M1605.066,112.824l-1.56-1.69v-8.19l1.689-1.69h8.19l1.689,1.69v8.19l-1.689,1.69H1605.066z M1618.066,21.824l-1.56-1.69v-8.19
		l1.689-1.69h8.19l1.689,1.69v8.19l-1.689,1.69H1618.066z M1618.066,34.824l-1.56-1.69v-8.19l1.689-1.69h8.19l1.689,1.69v8.19
		l-1.689,1.69H1618.066z M1618.066,47.824l-1.56-1.69v-8.19l1.689-1.69h8.19l1.689,1.69v8.19l-1.689,1.69H1618.066z
		 M1618.066,60.824l-1.56-1.69v-8.19l1.689-1.69h8.19l1.689,1.69v8.19l-1.689,1.69H1618.066z M1618.066,73.824l-1.56-1.69v-8.19
		l1.689-1.69h8.19l1.689,1.69v8.19l-1.689,1.69H1618.066z M1618.066,86.824l-1.56-1.69v-8.19l1.689-1.69h8.19l1.689,1.69v8.19
		l-1.689,1.69H1618.066z M1618.066,99.824l-1.56-1.69v-8.19l1.689-1.69h8.19l1.689,1.69v8.19l-1.689,1.69H1618.066z
		 M1618.066,112.824l-1.56-1.69v-8.19l1.689-1.69h8.19l1.689,1.69v8.19l-1.689,1.69H1618.066z M1631.066,34.824l-1.56-1.69v-8.19
		l1.689-1.69h8.19l1.689,1.69v8.19l-1.689,1.69H1631.066z M1631.066,47.824l-1.56-1.69v-8.19l1.689-1.69h8.19l1.689,1.69v8.19
		l-1.689,1.69H1631.066z M1631.066,60.824l-1.56-1.69v-8.19l1.689-1.69h8.19l1.689,1.69v8.19l-1.689,1.69H1631.066z
		 M1631.066,73.824l-1.56-1.69v-8.19l1.689-1.69h8.19l1.689,1.69v8.19l-1.689,1.69H1631.066z M1631.066,86.824l-1.56-1.69v-8.19
		l1.689-1.69h8.19l1.689,1.69v8.19l-1.689,1.69H1631.066z M1631.066,99.824l-1.56-1.69v-8.19l1.689-1.69h8.19l1.689,1.69v8.19
		l-1.689,1.69H1631.066z"/>
	<path fill="#186536" d="M1657.066,47.824l-1.56-1.69v-8.19l1.689-1.69h8.19l1.689,1.69v8.19l-1.689,1.69H1657.066z
		 M1657.066,60.824l-1.56-1.69v-8.19l1.689-1.69h8.19l1.689,1.69v8.19l-1.689,1.69H1657.066z M1657.066,73.824l-1.56-1.69v-8.19
		l1.689-1.69h8.19l1.689,1.69v8.19l-1.689,1.69H1657.066z M1657.066,86.824l-1.56-1.69v-8.19l1.689-1.69h8.19l1.689,1.69v8.19
		l-1.689,1.69H1657.066z M1657.066,99.824l-1.56-1.69v-8.19l1.689-1.69h8.19l1.689,1.69v8.19l-1.689,1.69H1657.066z
		 M1670.066,47.824l-1.56-1.69v-8.19l1.689-1.69h8.19l1.689,1.69v8.19l-1.689,1.69H1670.066z M1670.066,60.824l-1.56-1.69v-8.19
		l1.689-1.69h8.19l1.689,1.69v8.19l-1.689,1.69H1670.066z M1670.066,73.824l-1.56-1.69v-8.19l1.689-1.69h8.19l1.689,1.69v8.19
		l-1.689,1.69H1670.066z M1670.066,86.824l-1.56-1.69v-8.19l1.689-1.69h8.19l1.689,1.69v8.19l-1.689,1.69H1670.066z
		 M1670.066,99.824l-1.56-1.69v-8.19l1.689-1.69h8.19l1.689,1.69v8.19l-1.689,1.69H1670.066z M1670.066,112.824l-1.56-1.69v-8.19
		l1.689-1.69h8.19l1.689,1.69v8.19l-1.689,1.69H1670.066z M1683.066,112.824l-1.56-1.69v-8.19l1.689-1.69h8.19l1.689,1.69v8.19
		l-1.689,1.69H1683.066z M1696.066,47.824l-1.56-1.69v-8.19l1.689-1.69h8.19l1.689,1.69v8.19l-1.689,1.69H1696.066z
		 M1696.066,60.824l-1.56-1.69v-8.19l1.689-1.69h8.19l1.689,1.69v8.19l-1.689,1.69H1696.066z M1696.066,73.824l-1.56-1.69v-8.19
		l1.689-1.69h8.19l1.689,1.69v8.19l-1.689,1.69H1696.066z M1696.066,86.824l-1.56-1.69v-8.19l1.689-1.69h8.19l1.689,1.69v8.19
		l-1.689,1.69H1696.066z M1696.066,99.824l-1.56-1.69v-8.19l1.689-1.69h8.19l1.689,1.69v8.19l-1.689,1.69H1696.066z
		 M1696.066,112.824l-1.56-1.69v-8.19l1.689-1.69h8.19l1.689,1.69v8.19l-1.689,1.69H1696.066z M1709.066,47.824l-1.56-1.69v-8.19
		l1.689-1.69h8.19l1.689,1.69v8.19l-1.689,1.69H1709.066z M1709.066,60.824l-1.56-1.69v-8.19l1.689-1.69h8.19l1.689,1.69v8.19
		l-1.689,1.69H1709.066z M1709.066,73.824l-1.56-1.69v-8.19l1.689-1.69h8.19l1.689,1.69v8.19l-1.689,1.69H1709.066z
		 M1709.066,86.824l-1.56-1.69v-8.19l1.689-1.69h8.19l1.689,1.69v8.19l-1.689,1.69H1709.066z M1709.066,99.824l-1.56-1.69v-8.19
		l1.689-1.69h8.19l1.689,1.69v8.19l-1.689,1.69H1709.066z M1709.066,112.824l-1.56-1.69v-8.19l1.689-1.69h8.19l1.689,1.69v8.19
		l-1.689,1.69H1709.066z"/>
	<path fill="#186536" d="M1735.064,34.824l-1.56-1.69v-8.19l1.689-1.69h8.19l1.689,1.69v8.19l-1.689,1.69H1735.064z
		 M1735.064,47.824l-1.56-1.69v-8.19l1.689-1.69h8.19l1.689,1.69v8.19l-1.689,1.69H1735.064z M1735.064,60.824l-1.56-1.69v-8.19
		l1.689-1.69h8.19l1.689,1.69v8.19l-1.689,1.69H1735.064z M1735.064,73.824l-1.56-1.69v-8.19l1.689-1.69h8.19l1.689,1.69v8.19
		l-1.689,1.69H1735.064z M1735.064,86.824l-1.56-1.69v-8.19l1.689-1.69h8.19l1.689,1.69v8.19l-1.689,1.69H1735.064z
		 M1735.064,99.824l-1.56-1.69v-8.19l1.689-1.69h8.19l1.689,1.69v8.19l-1.689,1.69H1735.064z M1748.064,34.824l-1.56-1.69v-8.19
		l1.689-1.69h8.19l1.689,1.69v8.19l-1.689,1.69H1748.064z M1748.064,47.824l-1.56-1.69v-8.19l1.689-1.69h8.19l1.689,1.69v8.19
		l-1.689,1.69H1748.064z M1748.064,60.824l-1.56-1.69v-8.19l1.689-1.69h8.19l1.689,1.69v8.19l-1.689,1.69H1748.064z
		 M1748.064,73.824l-1.56-1.69v-8.19l1.689-1.69h8.19l1.689,1.69v8.19l-1.689,1.69H1748.064z M1748.064,86.824l-1.56-1.69v-8.19
		l1.689-1.69h8.19l1.689,1.69v8.19l-1.689,1.69H1748.064z M1748.064,99.824l-1.56-1.69v-8.19l1.689-1.69h8.19l1.689,1.69v8.19
		l-1.689,1.69H1748.064z M1748.064,112.824l-1.56-1.69v-8.19l1.689-1.69h8.19l1.689,1.69v8.19l-1.689,1.69H1748.064z
		 M1761.064,47.824l-1.56-1.69v-8.19l1.689-1.69h8.19l1.689,1.69v8.19l-1.689,1.69H1761.064z M1761.064,112.824l-1.56-1.69v-8.19
		l1.689-1.69h8.19l1.689,1.69v8.19l-1.689,1.69H1761.064z M1774.064,47.824l-1.56-1.69v-8.19l1.689-1.69h8.19l1.689,1.69v8.19
		l-1.689,1.69H1774.064z M1774.064,112.824l-1.56-1.69v-8.19l1.689-1.69h8.19l1.689,1.69v8.19l-1.689,1.69H1774.064z"/>
	<path fill="#186536" d="M1800.064,47.824l-1.56-1.69v-8.19l1.689-1.69h8.19l1.689,1.69v8.19l-1.689,1.69H1800.064z
		 M1800.064,60.824l-1.56-1.69v-8.19l1.689-1.69h8.19l1.689,1.69v8.19l-1.689,1.69H1800.064z M1800.064,73.824l-1.56-1.69v-8.19
		l1.689-1.69h8.19l1.689,1.69v8.19l-1.689,1.69H1800.064z M1800.064,86.824l-1.56-1.69v-8.19l1.689-1.69h8.19l1.689,1.69v8.19
		l-1.689,1.69H1800.064z M1800.064,99.824l-1.56-1.69v-8.19l1.689-1.69h8.19l1.689,1.69v8.19l-1.689,1.69H1800.064z
		 M1800.064,112.824l-1.56-1.69v-8.19l1.689-1.69h8.19l1.689,1.69v8.19l-1.689,1.69H1800.064z M1813.064,47.824l-1.56-1.69v-8.19
		l1.689-1.69h8.19l1.689,1.69v8.19l-1.689,1.69H1813.064z M1813.064,60.824l-1.56-1.69v-8.19l1.689-1.69h8.19l1.689,1.69v8.19
		l-1.689,1.69H1813.064z M1813.064,73.824l-1.56-1.69v-8.19l1.689-1.69h8.19l1.689,1.69v8.19l-1.689,1.69H1813.064z
		 M1813.064,86.824l-1.56-1.69v-8.19l1.689-1.69h8.19l1.689,1.69v8.19l-1.689,1.69H1813.064z M1813.064,99.824l-1.56-1.69v-8.19
		l1.689-1.69h8.19l1.689,1.69v8.19l-1.689,1.69H1813.064z M1813.064,112.824l-1.56-1.69v-8.19l1.689-1.69h8.19l1.689,1.69v8.19
		l-1.689,1.69H1813.064z M1826.064,60.824l-1.56-1.69v-8.19l1.689-1.69h8.19l1.689,1.69v8.19l-1.689,1.69H1826.064z
		 M1839.064,47.824l-1.56-1.69v-8.19l1.689-1.69h8.19l1.689,1.69v8.19l-1.689,1.69H1839.064z M1839.064,60.824l-1.56-1.69v-8.19
		l1.689-1.69h8.19l1.689,1.69v8.19l-1.689,1.69H1839.064z"/>
	<path fill="#186536" d="M1861.815,60.824l-1.56-1.69v-8.19l1.689-1.69h8.19l1.689,1.69v8.19l-1.689,1.69H1861.815z
		 M1861.815,73.824l-1.56-1.69v-8.19l1.689-1.69h8.19l1.689,1.69v8.19l-1.689,1.69H1861.815z M1861.815,86.824l-1.56-1.69v-8.19
		l1.689-1.69h8.19l1.689,1.69v8.19l-1.689,1.69H1861.815z M1861.815,99.824l-1.56-1.69v-8.19l1.689-1.69h8.19l1.689,1.69v8.19
		l-1.689,1.69H1861.815z M1874.815,47.824l-1.56-1.69v-8.19l1.689-1.69h8.19l1.689,1.69v8.19l-1.689,1.69H1874.815z
		 M1874.815,60.824l-1.56-1.69v-8.19l1.689-1.69h8.19l1.689,1.69v8.19l-1.689,1.69H1874.815z M1874.815,73.824l-1.56-1.69v-8.19
		l1.689-1.69h8.19l1.689,1.69v8.19l-1.689,1.69H1874.815z M1874.815,86.824l-1.56-1.69v-8.19l1.689-1.69h8.19l1.689,1.69v8.19
		l-1.689,1.69H1874.815z M1874.815,99.824l-1.56-1.69v-8.19l1.689-1.69h8.19l1.689,1.69v8.19l-1.689,1.69H1874.815z
		 M1874.815,112.824l-1.56-1.69v-8.19l1.689-1.69h8.19l1.689,1.69v8.19l-1.689,1.69H1874.815z M1887.815,47.824l-1.56-1.69v-8.19
		l1.689-1.69h8.19l1.689,1.69v8.19l-1.689,1.69H1887.815z M1887.815,86.824l-1.56-1.69v-8.19l1.689-1.69h8.19l1.689,1.69v8.19
		l-1.689,1.69H1887.815z M1887.815,112.824l-1.56-1.69v-8.19l1.689-1.69h8.19l1.689,1.69v8.19l-1.689,1.69H1887.815z
		 M1900.815,47.824l-1.56-1.69v-8.19l1.689-1.69h8.19l1.689,1.69v8.19l-1.689,1.69H1900.815z M1900.815,60.824l-1.56-1.69v-8.19
		l1.689-1.69h8.19l1.689,1.69v8.19l-1.689,1.69H1900.815z M1900.815,73.824l-1.56-1.69v-8.19l1.689-1.69h8.19l1.689,1.69v8.19
		l-1.689,1.69H1900.815z M1900.815,86.824l-1.56-1.69v-8.19l1.689-1.69h8.19l1.689,1.69v8.19l-1.689,1.69H1900.815z
		 M1900.815,112.824l-1.56-1.69v-8.19l1.689-1.69h8.19l1.689,1.69v8.19l-1.689,1.69H1900.815z M1913.815,60.824l-1.56-1.69v-8.19
		l1.689-1.69h8.19l1.689,1.69v8.19l-1.689,1.69H1913.815z M1913.815,73.824l-1.56-1.69v-8.19l1.689-1.69h8.19l1.689,1.69v8.19
		l-1.689,1.69H1913.815z M1913.815,86.824l-1.56-1.69v-8.19l1.689-1.69h8.19l1.689,1.69v8.19l-1.689,1.69H1913.815z"/>
	<path fill="#186536" d="M1939.814,73.824l-1.56-1.69v-8.19l1.689-1.69h8.19l1.689,1.69v8.19l-1.689,1.69H1939.814z
		 M1939.814,86.824l-1.56-1.69v-8.19l1.689-1.69h8.19l1.689,1.69v8.19l-1.689,1.69H1939.814z M1939.814,99.824l-1.56-1.69v-8.19
		l1.689-1.69h8.19l1.689,1.69v8.19l-1.689,1.69H1939.814z M1952.814,47.824l-1.56-1.69v-8.19l1.689-1.69h8.19l1.689,1.69v8.19
		l-1.689,1.69H1952.814z M1952.814,73.824l-1.56-1.69v-8.19l1.689-1.69h8.19l1.689,1.69v8.19l-1.689,1.69H1952.814z
		 M1952.814,86.824l-1.56-1.69v-8.19l1.689-1.69h8.19l1.689,1.69v8.19l-1.689,1.69H1952.814z M1952.814,99.824l-1.56-1.69v-8.19
		l1.689-1.69h8.19l1.689,1.69v8.19l-1.689,1.69H1952.814z M1952.814,112.824l-1.56-1.69v-8.19l1.689-1.69h8.19l1.689,1.69v8.19
		l-1.689,1.69H1952.814z M1965.814,47.824l-1.56-1.69v-8.19l1.689-1.69h8.19l1.689,1.69v8.19l-1.689,1.69H1965.814z
		 M1965.814,73.824l-1.56-1.69v-8.19l1.689-1.69h8.19l1.689,1.69v8.19l-1.689,1.69H1965.814z M1965.814,112.824l-1.56-1.69v-8.19
		l1.689-1.69h8.19l1.689,1.69v8.19l-1.689,1.69H1965.814z M1978.814,47.824l-1.56-1.69v-8.19l1.689-1.69h8.19l1.689,1.69v8.19
		l-1.689,1.69H1978.814z M1978.814,60.824l-1.56-1.69v-8.19l1.689-1.69h8.19l1.689,1.69v8.19l-1.689,1.69H1978.814z
		 M1978.814,73.824l-1.56-1.69v-8.19l1.689-1.69h8.19l1.689,1.69v8.19l-1.689,1.69H1978.814z M1978.814,86.824l-1.56-1.69v-8.19
		l1.689-1.69h8.19l1.689,1.69v8.19l-1.689,1.69H1978.814z M1978.814,99.824l-1.56-1.69v-8.19l1.689-1.69h8.19l1.689,1.69v8.19
		l-1.689,1.69H1978.814z M1978.814,112.824l-1.56-1.69v-8.19l1.689-1.69h8.19l1.689,1.69v8.19l-1.689,1.69H1978.814z
		 M1991.814,60.824l-1.56-1.69v-8.19l1.689-1.69h8.19l1.689,1.69v8.19l-1.689,1.69H1991.814z M1991.814,73.824l-1.56-1.69v-8.19
		l1.689-1.69h8.19l1.689,1.69v8.19l-1.689,1.69H1991.814z M1991.814,86.824l-1.56-1.69v-8.19l1.689-1.69h8.19l1.689,1.69v8.19
		l-1.689,1.69H1991.814z M1991.814,99.824l-1.56-1.69v-8.19l1.689-1.69h8.19l1.689,1.69v8.19l-1.689,1.69H1991.814z
		 M1991.814,112.824l-1.56-1.69v-8.19l1.689-1.69h8.19l1.689,1.69v8.19l-1.689,1.69H1991.814z"/>
	<path fill="#186536" d="M2017.813,60.824l-1.56-1.69v-8.19l1.689-1.69h8.19l1.689,1.69v8.19l-1.689,1.69H2017.813z
		 M2017.813,73.824l-1.56-1.69v-8.19l1.689-1.69h8.19l1.689,1.69v8.19l-1.689,1.69H2017.813z M2017.813,86.824l-1.56-1.69v-8.19
		l1.689-1.69h8.19l1.689,1.69v8.19l-1.689,1.69H2017.813z M2017.813,99.824l-1.56-1.69v-8.19l1.689-1.69h8.19l1.689,1.69v8.19
		l-1.689,1.69H2017.813z M2030.813,47.824l-1.56-1.69v-8.19l1.689-1.69h8.19l1.689,1.69v8.19l-1.689,1.69H2030.813z
		 M2030.813,60.824l-1.56-1.69v-8.19l1.689-1.69h8.19l1.689,1.69v8.19l-1.689,1.69H2030.813z M2030.813,73.824l-1.56-1.69v-8.19
		l1.689-1.69h8.19l1.689,1.69v8.19l-1.689,1.69H2030.813z M2030.813,86.824l-1.56-1.69v-8.19l1.689-1.69h8.19l1.689,1.69v8.19
		l-1.689,1.69H2030.813z M2030.813,99.824l-1.56-1.69v-8.19l1.689-1.69h8.19l1.689,1.69v8.19l-1.689,1.69H2030.813z
		 M2030.813,112.824l-1.56-1.69v-8.19l1.689-1.69h8.19l1.689,1.69v8.19l-1.689,1.69H2030.813z M2043.813,47.824l-1.56-1.69v-8.19
		l1.689-1.69h8.19l1.689,1.69v8.19l-1.689,1.69H2043.813z M2043.813,112.824l-1.56-1.69v-8.19l1.689-1.69h8.19l1.689,1.69v8.19
		l-1.689,1.69H2043.813z M2056.813,47.824l-1.56-1.69v-8.19l1.689-1.69h8.19l1.689,1.69v8.19l-1.689,1.69H2056.813z
		 M2056.813,112.824l-1.56-1.69v-8.19l1.689-1.69h8.19l1.689,1.69v8.19l-1.689,1.69H2056.813z"/>
	<path fill="#186536" d="M2082.812,21.824l-1.56-1.69v-8.19l1.689-1.69h8.19l1.689,1.69v8.19l-1.689,1.69H2082.812z
		 M2082.812,34.824l-1.56-1.69v-8.19l1.689-1.69h8.19l1.689,1.69v8.19l-1.689,1.69H2082.812z M2082.812,47.824l-1.56-1.69v-8.19
		l1.689-1.69h8.19l1.689,1.69v8.19l-1.689,1.69H2082.812z M2082.812,60.824l-1.56-1.69v-8.19l1.689-1.69h8.19l1.689,1.69v8.19
		l-1.689,1.69H2082.812z M2082.812,73.824l-1.56-1.69v-8.19l1.689-1.69h8.19l1.689,1.69v8.19l-1.689,1.69H2082.812z
		 M2082.812,86.824l-1.56-1.69v-8.19l1.689-1.69h8.19l1.689,1.69v8.19l-1.689,1.69H2082.812z M2082.812,99.824l-1.56-1.69v-8.19
		l1.689-1.69h8.19l1.689,1.69v8.19l-1.689,1.69H2082.812z M2082.812,112.824l-1.56-1.69v-8.19l1.689-1.69h8.19l1.689,1.69v8.19
		l-1.689,1.69H2082.812z M2095.812,21.824l-1.56-1.69v-8.19l1.689-1.69h8.19l1.689,1.69v8.19l-1.689,1.69H2095.812z
		 M2095.812,34.824l-1.56-1.69v-8.19l1.689-1.69h8.19l1.689,1.69v8.19l-1.689,1.69H2095.812z M2095.812,47.824l-1.56-1.69v-8.19
		l1.689-1.69h8.19l1.689,1.69v8.19l-1.689,1.69H2095.812z M2095.812,60.824l-1.56-1.69v-8.19l1.689-1.69h8.19l1.689,1.69v8.19
		l-1.689,1.69H2095.812z M2095.812,73.824l-1.56-1.69v-8.19l1.689-1.69h8.19l1.689,1.69v8.19l-1.689,1.69H2095.812z
		 M2095.812,86.824l-1.56-1.69v-8.19l1.689-1.69h8.19l1.689,1.69v8.19l-1.689,1.69H2095.812z M2095.812,99.824l-1.56-1.69v-8.19
		l1.689-1.69h8.19l1.689,1.69v8.19l-1.689,1.69H2095.812z M2095.812,112.824l-1.56-1.69v-8.19l1.689-1.69h8.19l1.689,1.69v8.19
		l-1.689,1.69H2095.812z M2108.812,47.824l-1.56-1.69v-8.19l1.689-1.69h8.19l1.689,1.69v8.19l-1.689,1.69H2108.812z
		 M2121.812,47.824l-1.56-1.69v-8.19l1.689-1.69h8.19l1.689,1.69v8.19l-1.689,1.69H2121.812z M2121.812,60.824l-1.56-1.69v-8.19
		l1.689-1.69h8.19l1.689,1.69v8.19l-1.689,1.69H2121.812z M2121.812,73.824l-1.56-1.69v-8.19l1.689-1.69h8.19l1.689,1.69v8.19
		l-1.689,1.69H2121.812z M2121.812,86.824l-1.56-1.69v-8.19l1.689-1.69h8.19l1.689,1.69v8.19l-1.689,1.69H2121.812z
		 M2121.812,99.824l-1.56-1.69v-8.19l1.689-1.69h8.19l1.689,1.69v8.19l-1.689,1.69H2121.812z M2121.812,112.824l-1.56-1.69v-8.19
		l1.689-1.69h8.19l1.689,1.69v8.19l-1.689,1.69H2121.812z M2134.812,60.824l-1.56-1.69v-8.19l1.689-1.69h8.19l1.689,1.69v8.19
		l-1.689,1.69H2134.812z M2134.812,73.824l-1.56-1.69v-8.19l1.689-1.69h8.19l1.689,1.69v8.19l-1.689,1.69H2134.812z
		 M2134.812,86.824l-1.56-1.69v-8.19l1.689-1.69h8.19l1.689,1.69v8.19l-1.689,1.69H2134.812z M2134.812,99.824l-1.56-1.69v-8.19
		l1.689-1.69h8.19l1.689,1.69v8.19l-1.689,1.69H2134.812z M2134.812,112.824l-1.56-1.69v-8.19l1.689-1.69h8.19l1.689,1.69v8.19
		l-1.689,1.69H2134.812z"/>
	<path fill="#186536" d="M55.12,192.955c0,1.813,0.012,3.439,0.04,4.88c0.026,1.439,0.066,2.773,0.12,4
		c0.053,1.228,0.12,2.373,0.2,3.439c0.08,1.067,0.2,2.134,0.36,3.2h-4.48c-0.32-1.812-0.48-3.812-0.48-6h-0.16
		c-1.388,2.4-3.108,4.16-5.16,5.28c-2.054,1.12-4.654,1.68-7.8,1.68c-1.6,0-3.173-0.2-4.72-0.6c-1.547-0.4-2.934-1.04-4.16-1.92
		c-1.228-0.881-2.228-2.013-3-3.4c-0.773-1.387-1.16-3.066-1.16-5.04c0-2.826,0.72-5.066,2.16-6.72
		c1.44-1.652,3.212-2.893,5.32-3.721c2.106-0.826,4.346-1.359,6.72-1.6c2.373-0.24,4.466-0.36,6.28-0.36h5.6v-2.239
		c0-3.2-0.987-5.493-2.96-6.88c-1.974-1.387-4.454-2.08-7.44-2.08c-4.268,0-8.027,1.387-11.28,4.159l-2.8-3.279
		c1.76-1.706,3.946-3,6.56-3.88c2.613-0.881,5.12-1.32,7.52-1.32c4.48,0,8.053,1.054,10.72,3.16c2.666,2.107,4,5.507,4,10.2V192.955
		z M45.52,189.914c-2.027,0-3.987,0.134-5.88,0.399c-1.894,0.268-3.6,0.72-5.12,1.36c-1.52,0.64-2.734,1.493-3.64,2.56
		c-0.907,1.067-1.36,2.4-1.36,4c0,1.12,0.252,2.12,0.76,3c0.506,0.88,1.16,1.601,1.96,2.16c0.8,0.561,1.692,0.987,2.68,1.28
		c0.986,0.294,1.986,0.439,3,0.439c2.56,0,4.667-0.372,6.32-1.12c1.652-0.746,2.972-1.72,3.96-2.92
		c0.986-1.199,1.666-2.56,2.04-4.08c0.372-1.52,0.56-3.052,0.56-4.6v-2.479H45.52z"/>
	<path fill="#186536" d="M86,175.834H75.44v24.08c0,1.653,0.453,2.934,1.36,3.84c0.906,0.907,2.16,1.359,3.76,1.359
		c0.906,0,1.826-0.12,2.76-0.359c0.933-0.24,1.827-0.547,2.68-0.92l0.4,4.319c-0.907,0.32-1.947,0.613-3.12,0.88
		c-1.173,0.267-2.213,0.4-3.12,0.4c-1.708,0-3.174-0.254-4.4-0.76c-1.228-0.507-2.214-1.187-2.96-2.04
		c-0.747-0.853-1.293-1.853-1.64-3c-0.348-1.146-0.52-2.387-0.52-3.72v-24.08h-8v-4.32h8v-10.64h4.8v10.64H86V175.834z"/>
	<path fill="#186536" d="M115.998,151.834h17.52c4.906,0,9.066,0.6,12.48,1.8c3.413,1.2,6.252,2.733,8.52,4.6
		c2.266,1.868,4.052,3.935,5.36,6.2c1.306,2.268,2.266,4.44,2.88,6.521c0.613,2.079,1,3.96,1.16,5.64s0.24,2.867,0.24,3.56
		c0,0.694-0.08,1.88-0.24,3.561c-0.16,1.68-0.547,3.56-1.16,5.64c-0.614,2.08-1.574,4.254-2.88,6.521
		c-1.308,2.268-3.094,4.333-5.36,6.199c-2.268,1.868-5.107,3.4-8.52,4.601c-3.414,1.2-7.574,1.8-12.48,1.8h-17.52V151.834z
		 M121.278,203.674h10.88c3.732,0,7.226-0.467,10.48-1.4c3.252-0.933,6.08-2.359,8.48-4.28c2.4-1.92,4.292-4.359,5.68-7.319
		c1.386-2.96,2.08-6.467,2.08-10.521c0-4.052-0.694-7.56-2.08-10.52c-1.387-2.96-3.28-5.4-5.68-7.32
		c-2.4-1.92-5.228-3.346-8.48-4.28c-3.254-0.933-6.748-1.4-10.48-1.4h-10.88V203.674z"/>
	<path fill="#186536" d="M207.279,201.514c-1.868,2.827-4.174,4.854-6.92,6.08c-2.748,1.227-5.774,1.84-9.08,1.84
		c-2.828,0-5.388-0.479-7.68-1.44c-2.293-0.96-4.268-2.306-5.92-4.039c-1.654-1.733-2.92-3.787-3.8-6.16
		c-0.88-2.373-1.32-5-1.32-7.88c0-2.772,0.453-5.333,1.36-7.681c0.906-2.346,2.186-4.386,3.84-6.12c1.652-1.732,3.6-3.092,5.84-4.08
		c2.24-0.985,4.72-1.479,7.44-1.479c2.827,0,5.32,0.494,7.48,1.479c2.16,0.988,3.973,2.294,5.44,3.921
		c1.466,1.627,2.572,3.479,3.32,5.56c0.746,2.08,1.12,4.188,1.12,6.32v3.359h-31.04c0,1.014,0.2,2.308,0.6,3.88
		c0.4,1.574,1.132,3.107,2.2,4.601c1.066,1.493,2.493,2.773,4.28,3.84c1.786,1.067,4.092,1.6,6.92,1.6
		c2.452,0,4.826-0.586,7.12-1.76c2.292-1.173,4.052-2.772,5.28-4.8L207.279,201.514z M203.598,186.874c0-1.653-0.333-3.2-1-4.641
		c-0.667-1.439-1.574-2.706-2.72-3.8c-1.147-1.093-2.508-1.96-4.08-2.6c-1.574-0.641-3.24-0.96-5-0.96
		c-2.614,0-4.788,0.533-6.52,1.6c-1.734,1.067-3.107,2.294-4.12,3.68c-1.014,1.388-1.734,2.734-2.16,4.04
		c-0.427,1.308-0.64,2.2-0.64,2.681H203.598z"/>
	<path fill="#186536" d="M251.758,201.514c-1.868,2.827-4.174,4.854-6.92,6.08c-2.748,1.227-5.774,1.84-9.08,1.84
		c-2.828,0-5.388-0.479-7.68-1.44c-2.293-0.96-4.268-2.306-5.92-4.039c-1.654-1.733-2.92-3.787-3.8-6.16
		c-0.88-2.373-1.32-5-1.32-7.88c0-2.772,0.453-5.333,1.36-7.681c0.906-2.346,2.186-4.386,3.84-6.12c1.652-1.732,3.6-3.092,5.84-4.08
		c2.24-0.985,4.72-1.479,7.44-1.479c2.827,0,5.32,0.494,7.48,1.479c2.16,0.988,3.973,2.294,5.44,3.921
		c1.466,1.627,2.572,3.479,3.32,5.56c0.746,2.08,1.12,4.188,1.12,6.32v3.359h-31.04c0,1.014,0.2,2.308,0.6,3.88
		c0.4,1.574,1.132,3.107,2.2,4.601c1.066,1.493,2.493,2.773,4.28,3.84c1.786,1.067,4.092,1.6,6.92,1.6
		c2.452,0,4.826-0.586,7.12-1.76c2.292-1.173,4.052-2.772,5.28-4.8L251.758,201.514z M248.078,186.874c0-1.653-0.333-3.2-1-4.641
		c-0.667-1.439-1.574-2.706-2.72-3.8c-1.147-1.093-2.508-1.96-4.08-2.6c-1.574-0.641-3.24-0.96-5-0.96
		c-2.614,0-4.788,0.533-6.52,1.6c-1.734,1.067-3.107,2.294-4.12,3.68c-1.014,1.388-1.734,2.734-2.16,4.04
		c-0.427,1.308-0.64,2.2-0.64,2.681H248.078z"/>
	<path fill="#186536" d="M263.598,181.914c0-0.693-0.027-1.533-0.08-2.521c-0.054-0.986-0.094-1.986-0.12-3
		c-0.028-1.013-0.068-1.96-0.12-2.84c-0.054-0.88-0.08-1.561-0.08-2.04h4.8c0.053,1.388,0.093,2.72,0.12,4
		c0.026,1.28,0.093,2.107,0.2,2.479c1.226-2.186,2.8-3.972,4.72-5.359c1.92-1.387,4.267-2.08,7.04-2.08c0.48,0,0.946,0.04,1.4,0.12
		c0.453,0.08,0.92,0.174,1.4,0.28l-0.56,4.72c-0.64-0.213-1.254-0.32-1.84-0.32c-2.08,0-3.88,0.334-5.4,1
		c-1.52,0.668-2.773,1.588-3.76,2.76c-0.988,1.174-1.72,2.548-2.2,4.12c-0.48,1.574-0.72,3.268-0.72,5.08v20.16h-4.8V181.914z"/>
	<path fill="#186536" d="M292.958,175.834h-7.68v-4.32h7.68v-12.08c0-2.4,0.36-4.386,1.08-5.96c0.72-1.572,1.612-2.84,2.68-3.8
		c1.066-0.96,2.252-1.64,3.56-2.04c1.306-0.4,2.546-0.6,3.72-0.6c2.24,0,4.08,0.32,5.52,0.96l-0.96,4.16
		c-1.068-0.533-2.508-0.8-4.32-0.8c-4.32,0-6.48,3.28-6.48,9.84v10.32h8.64v4.32h-8.64v32.64h-4.8V175.834z"/>
	<path fill="#186536" d="M313.517,156.874c0-1.012,0.346-1.866,1.04-2.56c0.692-0.692,1.546-1.04,2.56-1.04
		c1.012,0,1.866,0.348,2.56,1.04c0.692,0.694,1.04,1.548,1.04,2.56c0,1.014-0.348,1.868-1.04,2.56
		c-0.694,0.694-1.548,1.04-2.56,1.04c-1.014,0-1.868-0.346-2.56-1.04C313.863,158.742,313.517,157.888,313.517,156.874z
		 M314.717,171.514h4.8v36.96h-4.8V171.514z"/>
	<path fill="#186536" d="M365.756,201.514c-1.868,2.827-4.174,4.854-6.92,6.08c-2.748,1.227-5.774,1.84-9.08,1.84
		c-2.828,0-5.388-0.479-7.68-1.44c-2.293-0.96-4.268-2.306-5.92-4.039c-1.654-1.733-2.92-3.787-3.8-6.16
		c-0.88-2.373-1.32-5-1.32-7.88c0-2.772,0.453-5.333,1.36-7.681c0.906-2.346,2.186-4.386,3.84-6.12c1.652-1.732,3.6-3.092,5.84-4.08
		c2.24-0.985,4.72-1.479,7.44-1.479c2.827,0,5.32,0.494,7.48,1.479c2.16,0.988,3.973,2.294,5.44,3.921
		c1.466,1.627,2.572,3.479,3.32,5.56c0.746,2.08,1.12,4.188,1.12,6.32v3.359h-31.04c0,1.014,0.2,2.308,0.6,3.88
		c0.4,1.574,1.132,3.107,2.2,4.601c1.066,1.493,2.493,2.773,4.28,3.84c1.786,1.067,4.092,1.6,6.92,1.6
		c2.452,0,4.826-0.586,7.12-1.76c2.292-1.173,4.052-2.772,5.28-4.8L365.756,201.514z M362.076,186.874c0-1.653-0.333-3.2-1-4.641
		c-0.667-1.439-1.574-2.706-2.72-3.8c-1.147-1.093-2.508-1.96-4.08-2.6c-1.574-0.641-3.24-0.96-5-0.96
		c-2.614,0-4.788,0.533-6.52,1.6c-1.734,1.067-3.107,2.294-4.12,3.68c-1.014,1.388-1.734,2.734-2.16,4.04
		c-0.427,1.308-0.64,2.2-0.64,2.681H362.076z"/>
	<path fill="#186536" d="M378.396,147.994h4.8v60.48h-4.8V147.994z"/>
	<path fill="#186536" d="M429.115,201.994h-0.16c-0.748,1.28-1.68,2.388-2.8,3.32c-1.12,0.934-2.333,1.708-3.64,2.32
		c-1.308,0.613-2.68,1.066-4.12,1.359s-2.854,0.44-4.24,0.44c-2.827,0-5.44-0.479-7.84-1.44c-2.4-0.96-4.454-2.306-6.16-4.039
		c-1.707-1.733-3.04-3.787-4-6.16c-0.96-2.373-1.44-4.973-1.44-7.801c0-2.826,0.48-5.426,1.44-7.8c0.96-2.372,2.293-4.426,4-6.16
		c1.707-1.732,3.76-3.079,6.16-4.04c2.4-0.96,5.013-1.439,7.84-1.439c1.387,0,2.8,0.147,4.24,0.439
		c1.44,0.294,2.812,0.748,4.12,1.36c1.306,0.614,2.52,1.388,3.64,2.32c1.12,0.934,2.053,2.04,2.8,3.319h0.16v-30h4.8v60.48h-4.8
		V201.994z M429.595,189.994c0-2.079-0.4-4.039-1.2-5.88c-0.8-1.84-1.894-3.439-3.28-4.8c-1.388-1.359-3.014-2.439-4.88-3.24
		c-1.867-0.8-3.894-1.199-6.08-1.199c-2.24,0-4.267,0.399-6.08,1.199c-1.814,0.801-3.36,1.881-4.64,3.24
		c-1.28,1.36-2.254,2.96-2.92,4.8c-0.667,1.841-1,3.801-1,5.88c0,2.08,0.333,4.04,1,5.881c0.666,1.84,1.64,3.439,2.92,4.8
		c1.28,1.359,2.826,2.439,4.64,3.24c1.812,0.8,3.84,1.199,6.08,1.199c2.187,0,4.213-0.399,6.08-1.199
		c1.866-0.801,3.493-1.881,4.88-3.24c1.386-1.36,2.48-2.96,3.28-4.8C429.195,194.034,429.595,192.074,429.595,189.994z"/>
	<path fill="#186536" d="M485.195,151.834h5.44l23.84,56.64h-5.92l-6.16-15.04h-30l-6.4,15.04h-5.52L485.195,151.834z
		 M487.675,157.594l-13.2,31.04h26L487.675,157.594z"/>
	<path fill="#186536" d="M552.234,203.034c-1.813,2.188-3.867,3.801-6.16,4.841c-2.294,1.04-4.774,1.56-7.44,1.56
		c-2.827,0-5.44-0.479-7.84-1.44c-2.4-0.96-4.454-2.306-6.16-4.039c-1.707-1.733-3.04-3.787-4-6.16
		c-0.96-2.373-1.44-4.973-1.44-7.801c0-2.826,0.48-5.426,1.44-7.8c0.96-2.372,2.293-4.426,4-6.16c1.707-1.732,3.76-3.079,6.16-4.04
		c2.4-0.96,5.013-1.439,7.84-1.439c2.72,0,5.24,0.56,7.56,1.68c2.32,1.12,4.386,2.694,6.2,4.721l-3.84,2.88
		c-1.388-1.547-2.908-2.761-4.56-3.641c-1.654-0.88-3.44-1.319-5.36-1.319c-2.24,0-4.267,0.399-6.08,1.199
		c-1.814,0.801-3.36,1.881-4.64,3.24c-1.28,1.36-2.254,2.96-2.92,4.8c-0.667,1.841-1,3.801-1,5.88c0,2.08,0.333,4.04,1,5.881
		c0.666,1.84,1.64,3.439,2.92,4.8c1.28,1.359,2.826,2.439,4.64,3.24c1.812,0.8,3.84,1.199,6.08,1.199c2.026,0,3.88-0.466,5.56-1.399
		c1.68-0.933,3.133-2.173,4.36-3.721L552.234,203.034z"/>
	<path fill="#186536" d="M588.473,192.955c0,1.813,0.012,3.439,0.04,4.88c0.026,1.439,0.066,2.773,0.12,4
		c0.053,1.228,0.12,2.373,0.2,3.439c0.08,1.067,0.2,2.134,0.36,3.2h-4.48c-0.32-1.812-0.48-3.812-0.48-6h-0.16
		c-1.388,2.4-3.108,4.16-5.16,5.28c-2.054,1.12-4.654,1.68-7.8,1.68c-1.6,0-3.173-0.2-4.72-0.6c-1.547-0.4-2.934-1.04-4.16-1.92
		c-1.228-0.881-2.228-2.013-3-3.4c-0.773-1.387-1.16-3.066-1.16-5.04c0-2.826,0.72-5.066,2.16-6.72
		c1.44-1.652,3.212-2.893,5.32-3.721c2.106-0.826,4.346-1.359,6.72-1.6c2.373-0.24,4.466-0.36,6.28-0.36h5.6v-2.239
		c0-3.2-0.987-5.493-2.96-6.88c-1.974-1.387-4.454-2.08-7.44-2.08c-4.268,0-8.027,1.387-11.28,4.159l-2.8-3.279
		c1.76-1.706,3.946-3,6.56-3.88c2.613-0.881,5.12-1.32,7.52-1.32c4.48,0,8.053,1.054,10.72,3.16c2.666,2.107,4,5.507,4,10.2V192.955
		z M578.873,189.914c-2.027,0-3.987,0.134-5.88,0.399c-1.894,0.268-3.6,0.72-5.12,1.36c-1.52,0.64-2.734,1.493-3.64,2.56
		c-0.907,1.067-1.36,2.4-1.36,4c0,1.12,0.252,2.12,0.76,3c0.506,0.88,1.16,1.601,1.96,2.16c0.8,0.561,1.692,0.987,2.68,1.28
		c0.986,0.294,1.986,0.439,3,0.439c2.56,0,4.667-0.372,6.32-1.12c1.652-0.746,2.972-1.72,3.96-2.92
		c0.986-1.199,1.666-2.56,2.04-4.08c0.372-1.52,0.56-3.052,0.56-4.6v-2.479H578.873z"/>
	<path fill="#186536" d="M633.593,201.994h-0.16c-0.748,1.28-1.68,2.388-2.8,3.32c-1.12,0.934-2.333,1.708-3.64,2.32
		c-1.308,0.613-2.68,1.066-4.12,1.359s-2.854,0.44-4.24,0.44c-2.827,0-5.44-0.479-7.84-1.44c-2.4-0.96-4.454-2.306-6.16-4.039
		c-1.707-1.733-3.04-3.787-4-6.16c-0.96-2.373-1.44-4.973-1.44-7.801c0-2.826,0.48-5.426,1.44-7.8c0.96-2.372,2.293-4.426,4-6.16
		c1.707-1.732,3.76-3.079,6.16-4.04c2.4-0.96,5.013-1.439,7.84-1.439c1.387,0,2.8,0.147,4.24,0.439
		c1.44,0.294,2.812,0.748,4.12,1.36c1.306,0.614,2.52,1.388,3.64,2.32c1.12,0.934,2.053,2.04,2.8,3.319h0.16v-30h4.8v60.48h-4.8
		V201.994z M634.073,189.994c0-2.079-0.4-4.039-1.2-5.88c-0.8-1.84-1.894-3.439-3.28-4.8c-1.388-1.359-3.014-2.439-4.88-3.24
		c-1.867-0.8-3.894-1.199-6.08-1.199c-2.24,0-4.267,0.399-6.08,1.199c-1.814,0.801-3.36,1.881-4.64,3.24
		c-1.28,1.36-2.254,2.96-2.92,4.8c-0.667,1.841-1,3.801-1,5.88c0,2.08,0.333,4.04,1,5.881c0.666,1.84,1.64,3.439,2.92,4.8
		c1.28,1.359,2.826,2.439,4.64,3.24c1.812,0.8,3.84,1.199,6.08,1.199c2.187,0,4.213-0.399,6.08-1.199
		c1.866-0.801,3.493-1.881,4.88-3.24c1.386-1.36,2.48-2.96,3.28-4.8C633.673,194.034,634.073,192.074,634.073,189.994z"/>
	<path fill="#186536" d="M682.792,201.514c-1.868,2.827-4.174,4.854-6.92,6.08c-2.748,1.227-5.774,1.84-9.08,1.84
		c-2.828,0-5.388-0.479-7.68-1.44c-2.293-0.96-4.268-2.306-5.92-4.039c-1.654-1.733-2.92-3.787-3.8-6.16
		c-0.88-2.373-1.32-5-1.32-7.88c0-2.772,0.453-5.333,1.36-7.681c0.906-2.346,2.186-4.386,3.84-6.12c1.652-1.732,3.6-3.092,5.84-4.08
		c2.24-0.985,4.72-1.479,7.44-1.479c2.827,0,5.32,0.494,7.48,1.479c2.16,0.988,3.973,2.294,5.44,3.921
		c1.466,1.627,2.572,3.479,3.32,5.56c0.746,2.08,1.12,4.188,1.12,6.32v3.359h-31.04c0,1.014,0.2,2.308,0.6,3.88
		c0.4,1.574,1.132,3.107,2.2,4.601c1.066,1.493,2.493,2.773,4.28,3.84c1.786,1.067,4.092,1.6,6.92,1.6
		c2.452,0,4.826-0.586,7.12-1.76c2.292-1.173,4.052-2.772,5.28-4.8L682.792,201.514z M679.112,186.874c0-1.653-0.333-3.2-1-4.641
		c-0.667-1.439-1.574-2.706-2.72-3.8c-1.147-1.093-2.508-1.96-4.08-2.6c-1.574-0.641-3.24-0.96-5-0.96
		c-2.614,0-4.788,0.533-6.52,1.6c-1.734,1.067-3.107,2.294-4.12,3.68c-1.014,1.388-1.734,2.734-2.16,4.04
		c-0.427,1.308-0.64,2.2-0.64,2.681H679.112z"/>
	<path fill="#186536" d="M694.632,181.914c0-0.693-0.027-1.533-0.08-2.521c-0.054-0.986-0.094-1.986-0.12-3
		c-0.028-1.013-0.068-1.96-0.12-2.84c-0.054-0.88-0.08-1.561-0.08-2.04h4.8c0.053,1.388,0.093,2.72,0.12,4
		c0.026,1.28,0.093,2.107,0.2,2.479h0.24c0.96-2.025,2.56-3.772,4.8-5.239c2.24-1.467,4.853-2.2,7.84-2.2
		c2.453,0,4.692,0.627,6.72,1.88c2.026,1.254,3.492,3.294,4.4,6.12c1.172-2.772,2.92-4.8,5.24-6.08c2.32-1.28,4.76-1.92,7.32-1.92
		c2.88,0,5.226,0.454,7.04,1.36c1.812,0.907,3.24,2.094,4.28,3.56c1.04,1.468,1.76,3.16,2.16,5.08c0.4,1.92,0.6,3.894,0.6,5.92v22
		h-4.8v-21.76c0-1.493-0.134-2.946-0.4-4.36c-0.268-1.412-0.734-2.68-1.4-3.8c-0.667-1.12-1.6-2.013-2.8-2.68
		c-1.2-0.667-2.76-1-4.68-1c-2.24,0-4.08,0.413-5.52,1.239c-1.44,0.828-2.574,1.88-3.4,3.16c-0.827,1.28-1.414,2.668-1.76,4.16
		c-0.348,1.494-0.52,2.907-0.52,4.24v20.8h-4.8v-22.24c0-3.412-0.627-6.16-1.88-8.24c-1.253-2.079-3.188-3.119-5.8-3.119
		c-1.76,0-3.428,0.307-5,0.92c-1.574,0.613-2.934,1.547-4.08,2.8c-1.147,1.254-2.054,2.827-2.72,4.72c-0.667,1.894-1,4.12-1,6.68
		v18.48h-4.8V181.914z"/>
	<path fill="#186536" d="M773.191,219.914c-0.907,2.399-2.16,4.292-3.76,5.68c-1.6,1.386-3.734,2.08-6.4,2.08
		c-0.8,0-1.6-0.067-2.4-0.2c-0.8-0.134-1.574-0.308-2.32-0.52l0.48-4.48c0.692,0.213,1.4,0.412,2.12,0.6
		c0.72,0.187,1.453,0.28,2.2,0.28c0.852,0,1.612-0.188,2.28-0.56c0.666-0.374,1.24-0.854,1.72-1.44c0.48-0.587,0.892-1.24,1.24-1.96
		c0.346-0.72,0.652-1.454,0.92-2.2l3.36-8.56l-15.04-37.12h5.36l12.24,31.12l11.92-31.12h5.12L773.191,219.914z"/>
</g>
<g>
</g>
<g>
</g>
<g>
</g>
<g>
</g>
<g>
</g>
<g>
</g>
</svg>
